<?xml version="1.0" encoding="UTF-8" standalone="no"?>
<!DOCTYPE svg PUBLIC "-//W3C//DTD SVG 1.0//EN" "http://www.w3.org/TR/2001/REC-SVG-20010904/DTD/svg10.dtd">
<!-- Created with Inkscape (http://www.inkscape.org/) -->
<svg
   xmlns:svg="http://www.w3.org/2000/svg"
   xmlns="http://www.w3.org/2000/svg"
   version="1.0"
   width="500"
   height="500"
   id="svg2884">
  <defs
     id="defs2886" />
  <g
     id="layer1">
    <g
       transform="translate(-118.81536,120.73827)"
       id="g3043">
      <path
         d="M 449.8618,-50.588443 C 451.40822,-49.835173 453.38888,-50.479885 454.16654,-52.072832 C 454.93975,-53.661349 454.23299,-55.622067 452.68658,-56.377554 C 451.09806,-57.150767 449.15505,-56.481684 448.38184,-54.893167 C 447.60865,-53.304651 448.2733,-51.366085 449.8618,-50.588443 L 449.8618,-50.588443 z M 456.58143,-64.364445 C 458.12785,-63.606745 460.11293,-64.258101 460.88617,-65.844403 C 461.65936,-67.437351 460.95261,-69.398071 459.4062,-70.149129 C 457.81325,-70.92677 455.8769,-70.255471 455.10147,-68.664738 C 454.32827,-67.078438 454.99514,-65.137656 456.58143,-64.364445 L 456.58143,-64.364445 z"
         id="path5"
         style="fill-rule:evenodd" />
      <path
         d="M 284.12884,247.1265 C 284.12884,247.1265 301.96363,262.48881 368.70125,262.48881 C 435.44108,262.48881 455.09481,248.4115 455.09481,248.4115 L 455.09481,261.18389 C 455.09481,261.18389 435.44108,275.25455 368.70125,275.25455 C 301.96363,275.25455 284.12884,259.89225 284.12884,259.89225 L 284.12884,247.1265 L 284.12884,247.1265 z"
         id="path7"
         style="fill:none;stroke:#000000;stroke-width:3.32325602;stroke-miterlimit:3.86369991" />
      <path
         d="M 509.80893,273.8034 C 509.80893,269.66041 513.16762,266.30836 517.31283,266.30836 C 521.45359,266.30836 524.81008,269.66041 524.81008,273.8034 C 524.81008,277.9486 521.45137,281.30732 517.31283,281.30732 C 513.16762,281.30732 509.80893,277.95081 509.80893,273.8034 L 509.80893,273.8034 z M 471.68673,304.31976 C 471.68673,300.18563 475.04544,296.82472 479.18844,296.82472 C 483.33143,296.82472 486.69234,300.18563 486.69234,304.31976 C 486.69234,308.46496 483.33365,311.82366 479.18844,311.82366 C 475.04323,311.82366 471.68673,308.46496 471.68673,304.31976 L 471.68673,304.31976 z"
         id="path9"
         style="fill:none;stroke:#000000;stroke-width:3.32325602;stroke-linecap:round;stroke-miterlimit:3.86369991" />
      <path
         d="M 356.64892,121.89515 C 356.64892,120.40191 357.85637,119.19447 359.35404,119.19447 C 360.84286,119.19447 362.05032,120.40191 362.05032,121.89515 C 362.05032,123.38842 360.84286,124.59587 359.35404,124.59587 C 357.85637,124.59587 356.64892,123.38842 356.64892,121.89515 L 356.64892,121.89515 z"
         id="path11" />
      <path
         d="M 360.95806,125.94733 C 360.95806,124.4541 362.16554,123.24663 363.65878,123.24663 C 365.15201,123.24663 366.35947,124.4541 366.35947,125.94733 C 366.35947,127.43615 365.15201,128.64361 363.65878,128.64361 C 362.16554,128.64361 360.95806,127.43615 360.95806,125.94733 L 360.95806,125.94733 z"
         id="path13" />
      <path
         d="M 365.26944,129.99726 C 365.26944,128.50402 366.47689,127.29657 367.97016,127.29657 C 369.46341,127.29657 370.67084,128.50402 370.67084,129.99726 C 370.67084,131.48608 369.46341,132.69795 367.97016,132.69795 C 366.47689,132.69795 365.26944,131.48608 365.26944,129.99726 L 365.26944,129.99726 z"
         id="path15" />
      <path
         d="M 368.70125,135.13502 C 368.70125,133.63735 369.90871,132.42989 371.40195,132.42989 C 372.89077,132.42989 374.10264,133.63735 374.10264,135.13502 C 374.10264,136.62384 372.89077,137.83127 371.40195,137.83127 C 369.90871,137.82906 368.70125,136.62163 368.70125,135.13502 L 368.70125,135.13502 z"
         id="path17" />
      <path
         d="M 370.24103,141.32736 C 370.24103,139.83854 371.45292,138.63108 372.94616,138.63108 C 374.43497,138.63108 375.64687,139.83854 375.64687,141.32736 C 375.64687,142.81839 374.43497,144.02582 372.94616,144.02582 C 371.45292,144.02582 370.24103,142.81839 370.24103,141.32736 L 370.24103,141.32736 z"
         id="path19" />
      <path
         d="M 370.70407,146.98797 C 370.70407,145.49695 371.91595,144.28063 373.4092,144.28063 C 374.89802,144.28063 376.10547,145.49695 376.10547,146.98797 C 376.10547,148.47679 374.89802,149.68424 373.4092,149.68424 C 371.91595,149.68424 370.70407,148.47679 370.70407,146.98797 L 370.70407,146.98797 z"
         id="path21" />
      <path
         d="M 369.81788,153.45504 C 369.81788,151.96621 371.02532,150.75877 372.51857,150.75877 C 374.00739,150.75877 375.21929,151.96621 375.21929,153.45504 C 375.21929,154.94606 374.00739,156.16236 372.51857,156.16236 C 371.02532,156.16236 369.81788,154.94606 369.81788,153.45504 L 369.81788,153.45504 z"
         id="path23" />
      <path
         d="M 368.92502,159.9243 C 368.92502,158.43549 370.1369,157.22803 371.62572,157.22803 C 373.11897,157.22803 374.33084,158.43549 374.33084,159.9243 C 374.33084,161.41312 373.11897,162.62942 371.62572,162.62942 C 370.1369,162.62942 368.92502,161.41312 368.92502,159.9243 L 368.92502,159.9243 z"
         id="path25" />
      <path
         d="M 373.97859,156.6808 C 373.97859,155.19199 375.19047,153.98453 376.68371,153.98453 C 378.17253,153.98453 379.37996,155.19199 379.37996,156.6808 C 379.37996,158.17847 378.17253,159.38815 376.68371,159.38815 C 375.19047,159.38815 373.97859,158.17847 373.97859,156.6808 L 373.97859,156.6808 z"
         id="path27" />
      <path
         d="M 377.41261,151.82663 C 377.41261,150.32896 378.6245,149.1215 380.11332,149.1215 C 381.60657,149.1215 382.81402,150.32896 382.81402,151.82663 C 382.81402,153.31545 381.60657,154.52511 380.11332,154.52511 C 378.62228,154.52511 377.41261,153.31545 377.41261,151.82663 L 377.41261,151.82663 z"
         id="path29" />
      <path
         d="M 380.57635,146.16822 C 380.57635,144.67055 381.78381,143.4631 383.27706,143.4631 C 384.76587,143.4631 385.97335,144.67055 385.97335,146.16822 C 385.97335,147.65705 384.76587,148.86449 383.27706,148.86449 C 381.78381,148.86449 380.57635,147.65705 380.57635,146.16822 L 380.57635,146.16822 z"
         id="path31" />
      <path
         d="M 383.73566,140.50097 C 383.73566,139.01216 384.94754,137.80471 386.43636,137.80471 C 387.92961,137.80471 389.13707,139.01216 389.13707,140.50097 C 389.13707,141.99866 387.92961,143.2061 386.43636,143.2061 C 384.94754,143.2061 383.73566,141.99866 383.73566,140.50097 L 383.73566,140.50097 z"
         id="path33" />
      <path
         d="M 385.27765,134.30865 C 385.27765,132.81317 386.4851,131.60575 387.97836,131.60575 C 389.4716,131.60575 390.67907,132.81317 390.67907,134.30865 C 390.67907,135.79747 389.4716,137.01376 387.97836,137.01376 C 386.4851,137.01154 385.27765,135.79525 385.27765,134.30865 L 385.27765,134.30865 z"
         id="path35" />
      <path
         d="M 385.74069,128.64361 C 385.74069,127.15479 386.94815,125.94733 388.44139,125.94733 C 389.93021,125.94733 391.14208,127.15479 391.14208,128.64361 C 391.14208,130.13685 389.93021,131.34873 388.44139,131.34873 C 386.95035,131.35093 385.74069,130.13685 385.74069,128.64361 L 385.74069,128.64361 z"
         id="path37" />
      <path
         d="M 384.85227,122.17434 C 384.85227,120.68552 386.05973,119.47363 387.55298,119.47363 C 389.04181,119.47363 390.25368,120.68552 390.25368,122.17434 C 390.25368,123.66757 389.04181,124.87503 387.55298,124.87503 C 386.05973,124.87725 384.85227,123.66979 384.85227,122.17434 L 384.85227,122.17434 z"
         id="path39" />
      <polygon
         points="60.24,85.043 79.891,85.043 79.891,91.76 60.24,91.76 60.24,85.043 "
         transform="matrix(2.2155037,0,0,2.2155037,105.97352,-131.22613)"
         id="polygon41"
         style="fill:none;stroke:#000000;stroke-width:1.5;stroke-miterlimit:3.86369991" />
      <path
         d="M 295.69376,88.735738 C 295.50323,116.40514 296.4537,130.83252 298.90847,159.60969 C 301.99465,195.89965 304.51592,206.82652 310.9032,236.48769 M 291.35358,82.270894 C 290.48067,128.86293 292.2265,157.6822 292.66075,192.51658 C 293.1149,228.93058 293.96788,226.48023 297.45064,238.23571 M 438.10857,151.89309 C 435.64271,196.9498 427.16841,233.56099 421.52773,237.61313 M 447.80582,149.42725 C 445.34218,194.48617 443.21973,229.05244 437.9424,240.88323"
         id="path43"
         style="fill:none;stroke:#000000;stroke-width:3.32325602;stroke-linecap:round;stroke-linejoin:round;stroke-miterlimit:3.86369991" />
      <path
         d="M 241.63991,301.80516 C 241.63991,297.66215 244.99417,294.30125 249.13717,294.30125 C 253.28015,294.30125 256.64107,297.66215 256.64107,301.80516 C 256.64107,305.94815 253.28236,309.30907 249.13717,309.30907 C 244.99194,309.30907 241.63991,305.94815 241.63991,301.80516 L 241.63991,301.80516 z M 206.79446,272.71337 C 206.79446,268.56818 210.15316,265.20946 214.29836,265.20946 C 218.43914,265.20946 221.80005,268.56818 221.80005,272.71337 C 221.80005,276.85637 218.43692,280.21507 214.29836,280.21507 C 210.15316,280.21507 206.79446,276.85637 206.79446,272.71337 L 206.79446,272.71337 z"
         id="path45"
         style="fill:none;stroke:#000000;stroke-width:3.32325602;stroke-linecap:round;stroke-miterlimit:3.86369991" />
      <path
         d="M 367.17255,70.666086 L 355.83141,76.44411 C 354.18528,83.088407 353.35888,86.863626 352.07167,93.587676 C 351.26968,97.786054 348.0882,100.664 350.19294,104.38605 C 351.18105,106.13629 352.1293,107.06682 353.95265,107.91091 C 356.19473,108.94777 357.92284,108.85694 360.28899,108.14576 C 362.14115,107.58744 363.30871,107.06682 364.51619,105.56026 C 366.26199,103.38906 365.62394,101.29985 365.69039,98.517178 C 365.80559,93.631995 360.14498,88.901894 362.87448,86.303111 C 367.72865,81.688213 368.95825,76.840688 367.17255,70.666086 L 367.17255,70.666086 z"
         id="path47"
         style="fill:none;stroke:#000000;stroke-width:3.32325602;stroke-miterlimit:1" />
      <path
         d="M 394.4033,82.793751 C 394.6736,88.737944 399.26413,90.04288 399.26413,94.936931 C 399.26413,100.05695 399.70724,99.647088 398.45327,102.21706 C 397.47399,104.22651 396.57895,105.36086 394.6736,106.52622 C 391.87764,108.23439 389.38299,108.47367 386.31451,107.3371"
         id="path49"
         style="fill:none;stroke:#000000;stroke-width:3.32325602;stroke-miterlimit:3.86369991" />
      <path
         d="M 362.86118,106.25592 C 363.44829,108.50244 363.5635,109.86943 363.39069,112.18241 C 363.18465,114.90747 362.74157,116.49156 361.51416,118.93748 M 384.51773,108.24102 C 384.87665,111.98301 384.73265,114.19629 383.88854,117.8563 C 383.26376,120.57916 382.71875,122.09679 381.46036,124.59365"
         id="path51"
         style="fill:none;stroke:#000000;stroke-width:3.32325602;stroke-miterlimit:3.86369991" />
      <path
         d="M 368.71897,71.151274 C 373.98079,70.13436 377.03597,69.868504 382.38864,69.950479 C 386.92599,70.025792 389.50262,70.289441 393.95578,71.151274 C 394.72899,74.372613 394.86636,76.324478 394.55618,79.625572 C 394.4432,80.775414 394.34572,81.420137 394.10423,82.550046 C 394.90182,86.305318 394.86858,88.662617 393.95578,92.389089 C 393.14934,95.685754 391.87099,97.278699 390.26696,100.26743 C 389.10162,102.43862 388.39265,103.64164 387.06112,105.71533 C 386.24583,107.0513 385.54352,107.7381 384.18319,108.51132 C 381.5069,110.02893 378.97455,110.02893 376.30486,108.51132 C 371.25351,106.03881 367.3631,99.768941 364.78203,95.357856"
         id="path53"
         style="fill:none;stroke:#000000;stroke-width:3.32325602;stroke-miterlimit:3.86369991" />
      <polygon
         points="119.771,95.006 124.224,94.9 123.791,96.41 120.393,96.86 119.771,95.006 "
         transform="matrix(2.2155037,0,0,2.2155037,105.97352,-131.22613)"
         id="polygon55" />
      <polygon
         points="129.841,94.793 126.515,94.719 126.873,96.173 129.311,96.703 129.841,94.793 "
         transform="matrix(2.2155037,0,0,2.2155037,105.97352,-131.22613)"
         id="polygon57" />
      <polygon
         points="126.025,95.219 126.025,98.505 126.556,99.882 125.919,100.517 126.979,100.836 127.086,96.278 126.873,95.219 126.025,95.219 "
         transform="matrix(2.2155037,0,0,2.2155037,105.97352,-131.22613)"
         id="polygon59" />
      <polygon
         points="127.403,102.957 123.164,102.957 123.8,103.805 124.859,104.333 127.192,104.439 127.403,102.957 "
         transform="matrix(2.2155037,0,0,2.2155037,105.97352,-131.22613)"
         id="polygon61" />
      <path
         d="M 355.58327,75.518027 C 360.70771,72.675541 363.89583,71.45258 369.6052,70.123284 C 378.92359,67.960956 384.81239,67.960956 394.13082,70.123284 L 395.75257,62.034473 C 385.96668,59.028024 379.46417,58.828639 369.51435,61.236904 C 362.72826,62.878595 358.91759,64.575655 353.15285,68.517042 L 355.58327,75.518027 L 355.58327,75.518027 z M 351.8014,67.706163 L 340.21429,56.108005 C 343.19194,53.015166 346.16514,51.845366 350.45438,52.066932 C 354.8721,52.297339 357.81648,53.890283 360.43078,57.457233 L 366.09361,53.945663 C 365.30488,51.431063 365.17417,49.818186 365.55081,47.208329 C 366.10912,43.344487 370.14132,38.315287 370.14132,38.315287 C 370.41384,38.315287 376.24504,40.34692 378.49156,43.435318 C 380.36589,46.020816 381.00173,48.063513 380.91976,51.256038 L 388.20434,52.066932 C 388.62972,48.415772 390.03212,46.07399 393.05186,43.978121 C 397.11288,41.157786 401.55495,41.062514 405.7334,43.707822 C 402.70258,47.401066 401.1872,49.700777 398.99606,53.945663 C 397.6734,56.502375 397.18598,58.064285 396.02285,60.69853"
         id="path63"
         style="fill:none;stroke:#000000;stroke-width:3.32325602;stroke-miterlimit:3.86369991" />
      <path
         d="M 365.43783,32.444212 C 356.80621,7.628358 351.46243,-14.329509 368.70125,-15.069488 C 390.67241,-16.013293 387.38017,2.9580624 377.17999,32.621446 M 383.59166,35.745306 C 389.87039,12.504671 392.82366,-11.701921 409.51305,-5.1351636 C 425.47354,1.1435755 423.70778,14.102058 399.96644,34.604333 M 405.32131,60.40608 C 431.03003,51.927341 448.52143,41.620822 453.37561,54.027638 M 408.31226,35.864937 C 416.99038,23.987626 433.95004,8.8269458 441.8306,24.665577 C 451.28639,43.670167 429.19559,45.68849 409.677,51.329156 M 360.58145,35.142694 C 352.09828,12.502465 344.39719,-11.792757 332.40688,-6.5309312 C 316.28024,0.54095721 321.73699,11.948571 350.86867,41.078033 M 331.98593,56.723913 C 306.86878,47.644783 293.63333,38.545708 287.35016,52.505592 M 344.93556,43.235933 C 335.77443,32.756595 307.79485,-0.055016609 299.00595,21.984806 C 291.35136,41.193223 314.96643,42.289904 333.60769,49.17127"
         id="path65"
         style="fill:none;stroke:#000000;stroke-width:3.32325602;stroke-linecap:round;stroke-linejoin:round;stroke-miterlimit:3.86369991" />
      <path
         d="M 336.17988,305.03093 C 322.32856,296.41926 309.0599,292.80356 298.1153,282.53249 C 293.30545,278.01509 292.16668,272.25698 294.45972,268.30452"
         id="path67"
         style="fill:none;stroke:#000000;stroke-width:3.32325602;stroke-miterlimit:3.86369991" />
      <path
         d="M 357.68798,307.36385 C 347.45015,300.41604 341.46607,298.08534 339.17525,288.81788 C 337.99215,284.02131 338.84512,279.86945 342.46305,276.58608 M 365.30268,303.70163 C 359.01951,295.75903 357.03442,295.73468 356.02416,288.81123 C 355.39938,284.52422 357.35566,279.86945 360.68114,277.91539 M 348.7462,306.36467 C 334.18372,299.41463 329.22763,299.53869 319.95574,287.14738 C 316.0055,281.86119 316.33781,279.53714 318.29412,274.25314 M 369.81788,303.70163 C 376.09883,295.75903 378.0817,295.73468 379.09417,288.81123 C 379.71894,284.52422 377.76269,279.86945 374.43277,277.91539 M 374.65653,307.56324 C 386.22146,302.23718 394.79103,296.75159 397.08186,287.47971 C 398.26495,282.68315 398.04117,280.20178 394.41882,276.9162 M 386.37432,306.36467 C 400.9324,299.41463 408.32332,298.57938 417.58855,286.19029 C 421.54325,280.91074 423.01433,278.91014 418.58996,274.58547 M 398.93844,305.03093 C 412.78978,296.41926 424.53638,295.79891 435.47654,285.52562 C 440.28639,281.00821 438.09971,274.25094 435.81108,270.29626"
         id="path69"
         style="fill:none;stroke:#000000;stroke-width:3.32325602;stroke-linecap:round;stroke-linejoin:round;stroke-miterlimit:3.86369991" />
      <path
         d="M 250.42881,289.55563 C 250.42881,287.90952 251.76476,286.57578 253.40646,286.57578 C 255.04814,286.57578 256.37965,287.90952 256.37965,289.55563 C 256.37965,291.1929 255.04814,292.5244 253.40646,292.5244 C 251.76476,292.5244 250.42881,291.1929 250.42881,289.55563 L 250.42881,289.55563 z"
         id="path71" />
      <path
         d="M 257.31236,297.7685 C 257.31236,296.12238 258.64389,294.79086 260.29001,294.79086 C 261.93169,294.79086 263.26321,296.12238 263.26321,297.7685 C 263.26321,299.40577 261.93169,300.73949 260.29001,300.73949 C 258.64389,300.73949 257.31236,299.40577 257.31236,297.7685 L 257.31236,297.7685 z"
         id="path73" />
      <path
         d="M 255.14117,310.41683 C 255.14117,308.7707 256.47713,307.43919 258.11438,307.43919 C 259.76049,307.43919 261.09202,308.7707 261.09202,310.41683 C 261.09202,312.06293 259.76049,313.38781 258.11438,313.38781 C 256.47713,313.38781 255.14117,312.06293 255.14117,310.41683 L 255.14117,310.41683 z"
         id="path75" />
      <path
         d="M 241.95893,314.0148 C 241.95893,312.36868 243.29044,311.03716 244.93213,311.03716 C 246.57381,311.03716 247.90534,312.36868 247.90534,314.0148 C 247.90534,315.65206 246.57381,316.98578 244.93213,316.98578 C 243.29044,316.98578 241.95893,315.65206 241.95893,314.0148 L 241.95893,314.0148 z"
         id="path77" />
      <path
         d="M 234.72088,304.81603 C 234.72088,303.17876 236.05683,301.84503 237.69853,301.84503 C 239.34022,301.84503 240.67172,303.17876 240.67172,304.81603 C 240.67172,306.46214 239.34022,307.79366 237.69853,307.79366 C 236.05683,307.79366 234.72088,306.46437 234.72088,304.81603 L 234.72088,304.81603 z"
         id="path79" />
      <path
         d="M 237.87353,292.96307 C 237.87353,291.32582 239.20505,289.99209 240.85117,289.99209 C 242.49287,289.99209 243.82438,291.32582 243.82438,292.96307 C 243.82438,294.60919 242.49287,295.94071 240.85117,295.94071 C 239.20505,295.94071 237.87353,294.60919 237.87353,292.96307 L 237.87353,292.96307 z"
         id="path81" />
      <path
         d="M 215.58779,260.46163 C 215.58779,258.82438 216.91931,257.484 218.561,257.484 C 220.20267,257.484 221.53421,258.82217 221.53421,260.46163 C 221.53421,262.10776 220.20267,263.44149 218.561,263.44149 C 216.91931,263.44149 215.58779,262.10776 215.58779,260.46163 L 215.58779,260.46163 z"
         id="path83" />
      <path
         d="M 222.47134,268.67672 C 222.47134,267.03062 223.80287,265.69687 225.44456,265.69687 C 227.08625,265.69687 228.41777,267.03062 228.41777,268.67672 C 228.41777,270.32285 227.08625,271.6455 225.44456,271.6455 C 223.80287,271.6455 222.47134,270.32285 222.47134,268.67672 L 222.47134,268.67672 z"
         id="path85" />
      <path
         d="M 220.29573,281.32505 C 220.29573,279.67892 221.62726,278.34519 223.27337,278.34519 C 224.91505,278.34519 226.24658,279.67892 226.24658,281.32505 C 226.24658,282.96894 224.91505,284.30268 223.27337,284.30268 C 221.62726,284.30268 220.29573,282.96894 220.29573,281.32505 L 220.29573,281.32505 z"
         id="path87" />
      <path
         d="M 207.1135,284.92302 C 207.1135,283.27689 208.445,281.94316 210.08669,281.94316 C 211.73283,281.94316 213.06434,283.27689 213.06434,284.92302 C 213.06434,286.56028 211.73283,287.89179 210.08669,287.89179 C 208.445,287.89179 207.1135,286.56028 207.1135,284.92302 L 207.1135,284.92302 z"
         id="path89" />
      <path
         d="M 199.87987,275.7331 C 199.87987,274.08699 201.21139,272.75547 202.85309,272.75547 C 204.49477,272.75547 205.82627,274.08699 205.82627,275.7331 C 205.82627,277.37037 204.49477,278.70409 202.85309,278.70409 C 201.21139,278.70409 199.87987,277.37037 199.87987,275.7331 L 199.87987,275.7331 z"
         id="path91" />
      <path
         d="M 203.03031,263.87793 C 203.03031,262.23182 204.36183,260.90031 206.00352,260.90031 C 207.64522,260.90031 208.97673,262.23182 208.97673,263.87793 C 208.97673,265.51519 207.64522,266.84893 206.00352,266.84893 C 204.36183,266.84893 203.03031,265.51519 203.03031,263.87793 L 203.03031,263.87793 z"
         id="path93" />
      <path
         d="M 480.48008,292.07688 C 480.48008,290.43075 481.81159,289.09704 483.45328,289.09704 C 485.09496,289.09704 486.42648,290.43075 486.42648,292.07688 C 486.42648,293.71414 485.09496,295.04566 483.45328,295.04566 C 481.81159,295.04566 480.48008,293.71636 480.48008,292.07688 L 480.48008,292.07688 z"
         id="path95" />
      <path
         d="M 487.36364,300.28532 C 487.36364,298.64807 488.69515,297.31433 490.33685,297.31433 C 491.97853,297.31433 493.31006,298.64807 493.31006,300.28532 C 493.31006,301.92922 491.97853,303.26297 490.33685,303.26297 C 488.69515,303.26297 487.36364,301.92922 487.36364,300.28532 L 487.36364,300.28532 z"
         id="path97" />
      <path
         d="M 485.18803,312.93142 C 485.18803,311.29415 486.52396,309.96264 488.16564,309.96264 C 489.80735,309.96264 491.13887,311.29415 491.13887,312.93142 C 491.13887,314.57754 489.80735,315.91125 488.16564,315.91125 C 486.52396,315.91125 485.18803,314.57754 485.18803,312.93142 L 485.18803,312.93142 z"
         id="path99" />
      <path
         d="M 472.00577,316.52939 C 472.00577,314.8855 473.33729,313.55175 474.97898,313.55175 C 476.62066,313.55175 477.95661,314.8855 477.95661,316.52939 C 477.95661,318.17551 476.62066,319.50037 474.97898,319.50037 C 473.33729,319.50037 472.00577,318.17551 472.00577,316.52939 L 472.00577,316.52939 z"
         id="path101" />
      <path
         d="M 464.77215,307.33949 C 464.77215,305.69336 466.10587,304.35964 467.74534,304.35964 C 469.38704,304.35964 470.71855,305.69336 470.71855,307.33949 C 470.71855,308.97675 469.38704,310.30826 467.74534,310.30826 C 466.10366,310.30826 464.77215,308.97675 464.77215,307.33949 L 464.77215,307.33949 z"
         id="path103" />
      <path
         d="M 467.92481,295.48654 C 467.92481,293.84041 469.25632,292.5089 470.89801,292.5089 C 472.5397,292.5089 473.87122,293.84041 473.87122,295.48654 C 473.87122,297.13266 472.5397,298.46417 470.89801,298.46417 C 469.25632,298.46417 467.92481,297.13266 467.92481,295.48654 L 467.92481,295.48654 z"
         id="path105" />
      <path
         d="M 288.51332,-75.461904 C 288.51332,-77.108024 289.84483,-78.43954 291.49095,-78.43954 C 293.13263,-78.43954 294.46416,-77.108024 294.46416,-75.461904 C 294.46416,-73.820216 293.13263,-72.488698 291.49095,-72.488698 C 289.84483,-72.488698 288.51332,-73.820216 288.51332,-75.461904 L 288.51332,-75.461904 z"
         id="path107" />
      <path
         d="M 295.39691,-67.253463 C 295.39691,-68.895151 296.72841,-70.226668 298.37454,-70.226668 C 300.01177,-70.226668 301.34775,-68.895151 301.34775,-67.253463 C 301.34775,-65.611774 300.01177,-64.280257 298.37454,-64.280257 C 296.72841,-64.278041 295.39691,-65.609559 295.39691,-67.253463 L 295.39691,-67.253463 z"
         id="path109" />
      <path
         d="M 293.22347,-54.605151 C 293.22347,-56.246839 294.55721,-57.578359 296.19668,-57.578359 C 297.84281,-57.578359 299.17432,-56.246839 299.17432,-54.605151 C 299.17432,-52.963463 297.84281,-51.631946 296.19668,-51.631946 C 294.55721,-51.62973 293.22347,-52.961248 293.22347,-54.605151 L 293.22347,-54.605151 z"
         id="path111" />
      <path
         d="M 280.04346,-51.009388 C 280.04346,-52.651077 281.37497,-53.982597 283.01223,-53.982597 C 284.65834,-53.982597 285.98987,-52.648863 285.98987,-51.009388 C 285.98987,-49.3677 284.65834,-48.036184 283.01223,-48.036184 C 281.37497,-48.036184 280.04346,-49.3677 280.04346,-51.009388 L 280.04346,-51.009388 z"
         id="path113" />
      <path
         d="M 272.80539,-60.1993 C 272.80539,-61.840987 274.13692,-63.172504 275.78303,-63.172504 C 277.42472,-63.172504 278.75623,-61.840987 278.75623,-60.1993 C 278.75623,-58.557612 277.4225,-57.226093 275.78303,-57.226093 C 274.13692,-57.226093 272.80539,-58.557612 272.80539,-60.1993 L 272.80539,-60.1993 z"
         id="path115" />
      <path
         d="M 275.95585,-72.05446 C 275.95585,-73.696149 277.28735,-75.027666 278.93349,-75.027666 C 280.57517,-75.027666 281.90669,-73.696149 281.90669,-72.05446 C 281.90669,-70.408342 280.57517,-69.076823 278.93349,-69.076823 C 277.28735,-69.076823 275.95585,-70.408342 275.95585,-72.05446 L 275.95585,-72.05446 z"
         id="path117" />
      <path
         d="M 447.27632,-70.884673 L 449.3035,-77.617591 C 448.09605,-78.275594 445.45738,-79.804292 442.58609,-80.794622 C 436.33393,-82.950309 431.85863,-81.51466 430.26125,-76.886473 C 429.07816,-73.459089 430.4673,-70.674201 432.46565,-68.117509 C 435.53856,-64.229299 440.01834,-60.963647 438.57381,-56.756405 C 437.67211,-54.142113 434.87614,-52.852687 431.14967,-54.13325 C 425.53336,-56.0696 425.92107,-60.39648 426.16256,-62.758207 L 424.91745,-63.188014 L 422.73963,-56.025289 C 424.06226,-55.136872 426.5813,-53.406565 429.96879,-52.241209 C 436.48238,-49.994688 441.92143,-50.621676 444.00623,-56.663354 C 445.01208,-59.578957 444.15909,-61.982779 442.62153,-64.335643 C 440.26423,-67.931408 433.65982,-72.40894 435.10653,-76.611752 C 435.87532,-78.840547 438.40765,-79.93279 441.88156,-78.736419 C 446.42334,-77.172272 446.48981,-73.749322 446.03343,-71.312265 L 447.27632,-70.884673 L 447.27632,-70.884673 z"
         id="path119"
         style="stroke:#000000;stroke-width:3.32325602;stroke-miterlimit:3.86369991" />
      <path
         d="M 513.81675,-28.852136 L 518.13034,-34.410835 C 517.23306,-35.460984 515.32108,-37.836005 512.99701,-39.787861 C 507.92573,-44.039414 503.23552,-44.305275 500.08728,-40.552212 C 497.75436,-37.77397 498.05565,-34.67891 498.99947,-31.577205 C 500.4772,-26.849321 503.48586,-22.1879 500.62787,-18.784886 C 498.84881,-16.666864 495.78034,-16.460824 492.76061,-18.99536 C 488.21218,-22.812672 490.12193,-26.714175 491.19203,-28.834412 L 490.18619,-29.678519 L 485.58238,-23.771985 C 486.50181,-22.469272 488.2299,-19.950241 490.97712,-17.646119 C 496.25003,-13.219542 501.55174,-11.852575 505.6637,-16.748839 C 507.64881,-19.110566 507.71527,-21.658395 507.11929,-24.405619 C 506.20874,-28.604 501.64699,-35.155244 504.50498,-38.560474 C 506.01819,-40.366108 508.77648,-40.479098 511.59016,-38.121803 C 515.27234,-35.031176 514.10034,-31.809835 512.80648,-29.700673 L 513.81675,-28.852136 L 513.81675,-28.852136 z"
         id="path121" />
      <path
         d="M 513.81675,-28.852136 L 518.13034,-34.410835 C 517.23306,-35.460984 515.32108,-37.836005 512.99701,-39.787861 C 507.92573,-44.039414 503.23552,-44.305275 500.08728,-40.552212 C 497.75436,-37.77397 498.05565,-34.67891 498.99947,-31.577205 C 500.4772,-26.849321 503.48586,-22.1879 500.62787,-18.784886 C 498.84881,-16.666864 495.78034,-16.460824 492.76061,-18.99536 C 488.21218,-22.812672 490.12193,-26.714175 491.19203,-28.834412 L 490.18619,-29.678519 L 485.58238,-23.771985 C 486.50181,-22.469272 488.2299,-19.950241 490.97712,-17.646119 C 496.25003,-13.219542 501.55174,-11.852575 505.6637,-16.748839 C 507.64881,-19.110566 507.71527,-21.658395 507.11929,-24.405619 C 506.20874,-28.604 501.64699,-35.155244 504.50498,-38.560474 C 506.01819,-40.366108 508.77648,-40.479098 511.59016,-38.121803 C 515.27234,-35.031176 514.10034,-31.809835 512.80648,-29.700673 L 513.81675,-28.852136 L 513.81675,-28.852136 z"
         id="path123"
         style="fill:none;stroke:#000000;stroke-width:3.32325602;stroke-miterlimit:3.86369991" />
      <path
         d="M 505.48203,-5.7621495 L 512.59159,2.7121525 L 513.46006,1.9832424 C 511.91364,0.14216048 511.58575,-0.88583744 512.66248,-1.7897575 C 513.11445,-2.1708188 513.68382,-2.405667 514.24657,-2.5829068 L 518.8947,-4.2378879 L 526.43847,4.7570573 L 523.85077,9.2899807 C 523.5827,9.8106173 523.21713,10.300246 522.80063,10.645857 C 521.72611,11.547581 520.53858,10.415463 519.39983,9.0617807 L 518.53135,9.7906854 L 526.83284,19.687343 L 527.70575,18.960659 C 525.66305,16.528034 525.62317,15.205374 527.37565,12.079292 L 540.50691,-11.00847 L 538.12084,-13.853175 L 513.63952,-5.2104927 C 509.85544,-3.8701182 508.36218,-4.0938755 506.35273,-6.4932734 L 505.48203,-5.7621495 L 505.48203,-5.7621495 z M 534.80201,-9.8320367 L 527.54401,2.8229244 L 520.98835,-4.9845201 L 534.80201,-9.8320367 L 534.80201,-9.8320367 z"
         id="path125"
         style="fill-rule:evenodd" />
      <path
         d="M 505.48203,-5.7621495 L 512.59159,2.7121525 L 513.46006,1.9832424 C 511.91364,0.14216048 511.58575,-0.88583744 512.66248,-1.7897575 C 513.11445,-2.1708188 513.68382,-2.405667 514.24657,-2.5829068 L 518.8947,-4.2378879 L 526.43847,4.7570573 L 523.85077,9.2899807 C 523.5827,9.8106173 523.21713,10.300246 522.80063,10.645857 C 521.72611,11.547581 520.53858,10.415463 519.39983,9.0617807 L 518.53135,9.7906854 L 526.83284,19.687343 L 527.70575,18.960659 C 525.66305,16.528034 525.62317,15.205374 527.37565,12.079292 L 540.50691,-11.00847 L 538.12084,-13.853175 L 513.63952,-5.2104927 C 509.85544,-3.8701182 508.36218,-4.0938755 506.35273,-6.4932734 L 505.48203,-5.7621495 L 505.48203,-5.7621495 z M 534.80201,-9.8320367 L 527.54401,2.8229244 L 520.98835,-4.9845201 L 534.80201,-9.8320367 L 534.80201,-9.8320367 z"
         id="path127"
         style="fill:none;stroke:#000000;stroke-width:3.32325602;stroke-miterlimit:3.86369991" />
      <path
         d="M 530.29346,25.13304 L 536.44813,36.230493 L 537.43623,35.683276 C 535.89647,32.909455 536.16675,31.981163 539.25516,30.268575 L 546.27831,26.378167 L 547.09363,27.847025 C 549.79432,32.718925 553.66038,38.765039 560.72119,34.852465 C 566.19792,31.817228 565.72158,26.74593 562.93004,21.712302 L 556.71334,10.49079 L 555.72079,11.042447 C 557.26056,13.816255 556.99028,14.744547 553.89743,16.457136 L 536.84025,25.90847 C 533.74744,27.623267 532.82355,27.359631 531.286,24.583602 L 530.29346,25.13304 L 530.29346,25.13304 z M 556.31898,20.81946 C 558.69621,19.499021 559.34536,19.549974 560.51292,21.650272 C 562.40276,25.062141 562.89904,27.73847 558.22209,30.330618 C 552.8229,33.32155 550.74035,30.120142 548.87489,26.752578 L 548.10611,25.36346 L 556.31898,20.81946 L 556.31898,20.81946 z"
         id="path129"
         style="fill-rule:evenodd" />
      <path
         d="M 530.29346,25.13304 L 536.44813,36.230493 L 537.43623,35.683276 C 535.89647,32.909455 536.16675,31.981163 539.25516,30.268575 L 546.27831,26.378167 L 547.09363,27.847025 C 549.79432,32.718925 553.66038,38.765039 560.72119,34.852465 C 566.19792,31.817228 565.72158,26.74593 562.93004,21.712302 L 556.71334,10.49079 L 555.72079,11.042447 C 557.26056,13.816255 556.99028,14.744547 553.89743,16.457136 L 536.84025,25.90847 C 533.74744,27.623267 532.82355,27.359631 531.286,24.583602 L 530.29346,25.13304 L 530.29346,25.13304 z M 556.31898,20.81946 C 558.69621,19.499021 559.34536,19.549974 560.51292,21.650272 C 562.40276,25.062141 562.89904,27.73847 558.22209,30.330618 C 552.8229,33.32155 550.74035,30.120142 548.87489,26.752578 L 548.10611,25.36346 L 556.31898,20.81946 L 556.31898,20.81946 z"
         id="path131"
         style="fill:none;stroke:#000000;stroke-width:3.32325602;stroke-miterlimit:3.86369991" />
      <path
         d="M 544.73411,52.545468 L 549.48637,64.314226 L 550.54094,63.888847 C 549.34901,60.948869 549.72564,60.062676 553.00458,58.740015 L 571.08753,51.435518 C 574.36648,50.112845 575.25267,50.485062 576.4424,53.429455 L 577.49254,53.004076 L 572.73586,41.237541 L 571.69013,41.662919 C 572.89315,44.644996 572.50101,45.48909 569.21986,46.81175 L 551.13691,54.116262 C 547.85797,55.438922 546.98727,55.108815 545.78204,52.122311 L 544.73411,52.545468 L 544.73411,52.545468 z"
         id="path133" />
      <path
         d="M 544.73411,52.545468 L 549.48637,64.314226 L 550.54094,63.888847 C 549.34901,60.948869 549.72564,60.062676 553.00458,58.740015 L 571.08753,51.435518 C 574.36648,50.112845 575.25267,50.485062 576.4424,53.429455 L 577.49254,53.004076 L 572.73586,41.237541 L 571.69013,41.662919 C 572.89315,44.644996 572.50101,45.48909 569.21986,46.81175 L 551.13691,54.116262 C 547.85797,55.438922 546.98727,55.108815 545.78204,52.122311 L 544.73411,52.545468 L 544.73411,52.545468 z"
         id="path135"
         style="fill:none;stroke:#000000;stroke-width:3.32325602;stroke-miterlimit:3.86369991" />
      <path
         d="M 552.10729,71.104748 L 557.44224,92.51981 L 563.88936,91.197149 L 563.57033,89.918807 C 560.7655,90.477114 558.87566,89.641861 557.93409,85.860009 L 556.9238,81.814494 C 556.35222,79.523666 556.48956,79.118231 559.43398,78.384886 L 568.53969,76.114003 L 569.97977,81.876523 C 570.69094,84.734526 569.87565,85.401388 567.23696,86.061615 L 567.53165,87.249126 L 576.6418,84.978243 L 576.34491,83.790718 C 573.4404,84.515182 572.71813,84.229393 572.00254,81.37139 L 570.5669,75.608858 L 578.35439,73.665873 C 580.82023,73.054394 581.64217,73.360141 582.18056,75.518027 L 582.88287,78.331725 C 584.11028,83.256786 582.2714,84.320225 579.93626,85.089006 L 580.25529,86.36292 L 586.57167,84.510754 L 581.40957,63.798018 L 580.30846,64.070522 C 581.07945,67.152284 580.58316,67.97424 577.14915,68.831645 L 558.22652,73.546242 C 554.79471,74.401414 553.97056,73.907358 553.20178,70.827816 L 552.10729,71.104748 L 552.10729,71.104748 z"
         id="path137" />
      <path
         d="M 552.10729,71.104748 L 557.44224,92.51981 L 563.88936,91.197149 L 563.57033,89.918807 C 560.7655,90.477114 558.87566,89.641861 557.93409,85.860009 L 556.9238,81.814494 C 556.35222,79.523666 556.48956,79.118231 559.43398,78.384886 L 568.53969,76.114003 L 569.97977,81.876523 C 570.69094,84.734526 569.87565,85.401388 567.23696,86.061615 L 567.53165,87.249126 L 576.6418,84.978243 L 576.34491,83.790718 C 573.4404,84.515182 572.71813,84.229393 572.00254,81.37139 L 570.5669,75.608858 L 578.35439,73.665873 C 580.82023,73.054394 581.64217,73.360141 582.18056,75.518027 L 582.88287,78.331725 C 584.11028,83.256786 582.2714,84.320225 579.93626,85.089006 L 580.25529,86.36292 L 586.57167,84.510754 L 581.40957,63.798018 L 580.30846,64.070522 C 581.07945,67.152284 580.58316,67.97424 577.14915,68.831645 L 558.22652,73.546242 C 554.79471,74.401414 553.97056,73.907358 553.20178,70.827816 L 552.10729,71.104748 L 552.10729,71.104748 z"
         id="path139"
         style="fill:none;stroke:#000000;stroke-width:3.32325602;stroke-miterlimit:3.86369991" />
      <path
         d="M 559.43176,101.32202 L 560.16508,111.85671 L 561.29721,111.77919 C 561.07345,108.56893 561.70707,107.88654 565.23418,107.6384 L 585.4595,106.22714 L 585.46171,106.31797 L 560.94051,122.98078 L 561.23961,127.27442 L 586.03332,125.54188 C 589.56039,125.29817 590.28042,125.83433 590.50419,129.09113 L 591.63854,129.01137 L 590.90077,118.47665 L 589.77088,118.55641 C 589.99021,121.72015 589.361,122.44905 585.83392,122.69275 L 566.87364,124.01763 L 566.86921,123.92902 L 590.1763,108.08151 L 589.56039,99.217282 L 588.42828,99.301464 C 588.65205,102.4652 588.01839,103.18969 584.49133,103.43339 L 565.03476,104.7937 C 561.5077,105.04183 560.78324,104.41042 560.55946,101.24446 L 559.43176,101.32202 L 559.43176,101.32202 z"
         id="path141"
         style="fill-rule:evenodd" />
      <path
         d="M 559.43176,101.32202 L 560.16508,111.85671 L 561.29721,111.77919 C 561.07345,108.56893 561.70707,107.88654 565.23418,107.6384 L 585.4595,106.22714 L 585.46171,106.31797 L 560.94051,122.98078 L 561.23961,127.27442 L 586.03332,125.54188 C 589.56039,125.29817 590.28042,125.83433 590.50419,129.09113 L 591.63854,129.01137 L 590.90077,118.47665 L 589.77088,118.55641 C 589.99021,121.72015 589.361,122.44905 585.83392,122.69275 L 566.87364,124.01763 L 566.86921,123.92902 L 590.1763,108.08151 L 589.56039,99.217282 L 588.42828,99.301464 C 588.65205,102.4652 588.01839,103.18969 584.49133,103.43339 L 565.03476,104.7937 C 561.5077,105.04183 560.78324,104.41042 560.55946,101.24446 L 559.43176,101.32202 L 559.43176,101.32202 z"
         id="path143"
         style="fill:none;stroke:#000000;stroke-width:3.32325602;stroke-miterlimit:3.86369991" />
      <path
         d="M 560.92058,142.4617 L 559.80839,155.11 L 560.94051,155.20969 C 561.21747,152.04818 561.95522,151.43007 565.47787,151.7358 L 588.15576,153.72087 L 588.00732,155.44011 C 587.59082,160.1813 585.91811,161.07416 582.53503,161.23809 L 582.42204,162.54523 L 589.4452,162.93514 L 591.45909,139.9471 L 584.48246,139.06976 L 584.36282,140.37688 C 587.61741,141.1612 589.16382,142.25566 588.74731,146.99239 L 588.59443,148.75594 L 565.91211,146.77086 C 562.38724,146.45626 561.77132,145.72071 562.04828,142.5614 L 560.92058,142.4617 L 560.92058,142.4617 z"
         id="path145" />
      <path
         d="M 560.92058,142.4617 L 559.80839,155.11 L 560.94051,155.20969 C 561.21747,152.04818 561.95522,151.43007 565.47787,151.7358 L 588.15576,153.72087 L 588.00732,155.44011 C 587.59082,160.1813 585.91811,161.07416 582.53503,161.23809 L 582.42204,162.54523 L 589.4452,162.93514 L 591.45909,139.9471 L 584.48246,139.06976 L 584.36282,140.37688 C 587.61741,141.1612 589.16382,142.25566 588.74731,146.99239 L 588.59443,148.75594 L 565.91211,146.77086 C 562.38724,146.45626 561.77132,145.72071 562.04828,142.5614 L 560.92058,142.4617 L 560.92058,142.4617 z"
         id="path147"
         style="fill:none;stroke:#000000;stroke-width:3.32325602;stroke-miterlimit:3.86369991" />
      <path
         d="M 557.91414,166.77461 L 555.27546,179.19031 L 556.38102,179.42073 C 557.04345,176.31902 557.84989,175.79616 561.31274,176.53172 L 580.38379,180.58608 C 583.84661,181.32162 584.36947,182.1325 583.70925,185.23422 L 584.81701,185.46463 L 587.4601,173.05779 L 586.35235,172.81851 C 585.68106,175.96899 584.88348,176.44088 581.42507,175.7142 L 562.34958,171.65317 C 558.88674,170.92428 558.35504,170.15549 559.02411,167.01169 L 557.91414,166.77461 L 557.91414,166.77461 z"
         id="path149" />
      <path
         d="M 557.91414,166.77461 L 555.27546,179.19031 L 556.38102,179.42073 C 557.04345,176.31902 557.84989,175.79616 561.31274,176.53172 L 580.38379,180.58608 C 583.84661,181.32162 584.36947,182.1325 583.70925,185.23422 L 584.81701,185.46463 L 587.4601,173.05779 L 586.35235,172.81851 C 585.68106,175.96899 584.88348,176.44088 581.42507,175.7142 L 562.34958,171.65317 C 558.88674,170.92428 558.35504,170.15549 559.02411,167.01169 L 557.91414,166.77461 L 557.91414,166.77461 z"
         id="path151"
         style="fill:none;stroke:#000000;stroke-width:3.32325602;stroke-miterlimit:3.86369991" />
      <path
         d="M 554.11676,185.22092 L 550.15323,195.54296 L 551.21223,195.95059 C 552.07186,193.7063 552.80963,192.92201 554.12341,193.42493 C 554.67287,193.64205 555.15584,194.02311 555.58344,194.42632 L 559.28553,197.69419 L 555.07608,208.64544 L 549.85635,208.59005 C 549.26483,208.60556 548.66442,208.52359 548.15485,208.32419 C 546.84549,207.81905 547.26201,206.23274 547.89563,204.58442 L 546.83662,204.17899 L 542.20401,216.23797 L 543.26303,216.6434 C 544.39958,213.6835 545.53612,212.99669 549.12302,213.01221 L 575.68026,213.31129 L 577.0162,209.83737 L 557.58845,192.62291 C 554.5776,189.95986 554.05696,188.54418 555.17355,185.62414 L 554.11676,185.22092 L 554.11676,185.22092 z M 571.89396,208.89581 L 557.30266,208.68087 L 560.95826,199.15866 L 571.89396,208.89581 L 571.89396,208.89581 z"
         id="path153"
         style="fill-rule:evenodd" />
      <path
         d="M 554.11676,185.22092 L 550.15323,195.54296 L 551.21223,195.95059 C 552.07186,193.7063 552.80963,192.92201 554.12341,193.42493 C 554.67287,193.64205 555.15584,194.02311 555.58344,194.42632 L 559.28553,197.69419 L 555.07608,208.64544 L 549.85635,208.59005 C 549.26483,208.60556 548.66442,208.52359 548.15485,208.32419 C 546.84549,207.81905 547.26201,206.23274 547.89563,204.58442 L 546.83662,204.17899 L 542.20401,216.23797 L 543.26303,216.6434 C 544.39958,213.6835 545.53612,212.99669 549.12302,213.01221 L 575.68026,213.31129 L 577.0162,209.83737 L 557.58845,192.62291 C 554.5776,189.95986 554.05696,188.54418 555.17355,185.62414 L 554.11676,185.22092 L 554.11676,185.22092 z M 571.89396,208.89581 L 557.30266,208.68087 L 560.95826,199.15866 L 571.89396,208.89581 L 571.89396,208.89581 z"
         id="path155"
         style="fill:none;stroke:#000000;stroke-width:3.32325602;stroke-miterlimit:3.86369991" />
      <path
         d="M 538.96052,221.74127 L 527.59052,240.65725 L 533.08277,244.28182 L 533.76073,243.14748 C 531.38127,241.55895 530.63686,239.63147 532.64411,236.2905 L 534.79092,232.71688 C 536.00724,230.69856 536.39052,230.49918 538.99154,232.07218 L 547.03601,236.90417 L 543.97641,241.99985 C 542.46323,244.5233 541.41306,244.41474 539.08015,243.01677 L 538.45094,244.06913 L 546.49544,248.89892 L 547.12463,247.85765 C 544.5591,246.31121 544.25112,245.59783 545.76874,243.06772 L 548.82837,237.98093 L 555.70528,242.11506 C 557.8809,243.42219 558.24424,244.22421 557.10326,246.12955 L 555.60558,248.6109 C 552.99129,252.96881 550.94196,252.4238 548.74861,251.31604 L 548.07065,252.44151 L 553.84868,255.59197 L 564.84646,237.29413 L 563.87606,236.71587 C 562.24323,239.42986 561.3083,239.66914 558.27527,237.84134 L 541.5615,227.79847 C 538.53071,225.97954 538.29363,225.0446 539.9331,222.32174 L 538.96052,221.74127 L 538.96052,221.74127 z"
         id="path157" />
      <path
         d="M 538.96052,221.74127 L 527.59052,240.65725 L 533.08277,244.28182 L 533.76073,243.14748 C 531.38127,241.55895 530.63686,239.63147 532.64411,236.2905 L 534.79092,232.71688 C 536.00724,230.69856 536.39052,230.49918 538.99154,232.07218 L 547.03601,236.90417 L 543.97641,241.99985 C 542.46323,244.5233 541.41306,244.41474 539.08015,243.01677 L 538.45094,244.06913 L 546.49544,248.89892 L 547.12463,247.85765 C 544.5591,246.31121 544.25112,245.59783 545.76874,243.06772 L 548.82837,237.98093 L 555.70528,242.11506 C 557.8809,243.42219 558.24424,244.22421 557.10326,246.12955 L 555.60558,248.6109 C 552.99129,252.96881 550.94196,252.4238 548.74861,251.31604 L 548.07065,252.44151 L 553.84868,255.59197 L 564.84646,237.29413 L 563.87606,236.71587 C 562.24323,239.42986 561.3083,239.66914 558.27527,237.84134 L 541.5615,227.79847 C 538.53071,225.97954 538.29363,225.0446 539.9331,222.32174 L 538.96052,221.74127 L 538.96052,221.74127 z"
         id="path159"
         style="fill:none;stroke:#000000;stroke-width:3.32325602;stroke-miterlimit:3.86369991" />
      <path
         d="M 438.5007,336.41576 L 441.38307,342.83185 C 442.72567,342.53498 445.72546,341.95451 448.54135,340.82238 C 454.68053,338.34103 457.11092,334.3199 455.27871,329.78918 C 453.91839,326.42159 451.0471,325.2319 447.85899,324.62043 C 442.99153,323.69211 437.46606,324.17289 435.79779,320.05205 C 434.76093,317.47984 436.02599,314.67501 439.68158,313.20171 C 445.18709,310.97734 447.73493,314.49335 449.10411,316.43634 L 450.32485,315.94007 L 447.26747,309.10745 C 445.6878,309.30685 442.64812,309.65247 439.32708,310.99508 C 432.942,313.57614 429.24432,317.61057 431.63265,323.54368 C 432.79136,326.39725 435.00683,327.65345 437.71421,328.42222 C 441.85055,329.58093 449.77761,328.63046 451.44146,332.74909 C 452.32545,334.94024 451.13129,337.42159 447.72827,338.80406 C 443.26847,340.59863 440.97322,338.05746 439.72144,335.92391 L 438.5007,336.41576 L 438.5007,336.41576 z"
         id="path161" />
      <path
         d="M 438.5007,336.41576 L 441.38307,342.83185 C 442.72567,342.53498 445.72546,341.95451 448.54135,340.82238 C 454.68053,338.34103 457.11092,334.3199 455.27871,329.78918 C 453.91839,326.42159 451.0471,325.2319 447.85899,324.62043 C 442.99153,323.69211 437.46606,324.17289 435.79779,320.05205 C 434.76093,317.47984 436.02599,314.67501 439.68158,313.20171 C 445.18709,310.97734 447.73493,314.49335 449.10411,316.43634 L 450.32485,315.94007 L 447.26747,309.10745 C 445.6878,309.30685 442.64812,309.65247 439.32708,310.99508 C 432.942,313.57614 429.24432,317.61057 431.63265,323.54368 C 432.79136,326.39725 435.00683,327.65345 437.71421,328.42222 C 441.85055,329.58093 449.77761,328.63046 451.44146,332.74909 C 452.32545,334.94024 451.13129,337.42159 447.72827,338.80406 C 443.26847,340.59863 440.97322,338.05746 439.72144,335.92391 L 438.5007,336.41576 L 438.5007,336.41576 z"
         id="path163"
         style="fill:none;stroke:#000000;stroke-width:3.32325602;stroke-miterlimit:3.86369991" />
      <path
         d="M 413.44778,319.93019 L 401.0321,322.56663 L 401.26694,323.67661 C 404.36865,323.01415 405.17511,323.53702 405.91064,327.00208 L 410.63852,349.26125 L 408.95474,349.62459 C 404.30219,350.60827 402.95073,349.27897 401.81198,346.08421 L 400.52032,346.35672 L 402.20411,353.18934 L 424.77344,348.39277 L 423.58149,341.46046 L 422.28986,341.73295 C 422.49369,345.07616 421.90214,346.86851 417.24516,347.86326 L 415.51707,348.22661 L 410.78476,325.95858 C 410.05142,322.50018 410.57427,321.69816 413.68042,321.03573 L 413.44778,319.93019 L 413.44778,319.93019 z"
         id="path165" />
      <path
         d="M 413.44778,319.93019 L 401.0321,322.56663 L 401.26694,323.67661 C 404.36865,323.01415 405.17511,323.53702 405.91064,327.00208 L 410.63852,349.26125 L 408.95474,349.62459 C 404.30219,350.60827 402.95073,349.27897 401.81198,346.08421 L 400.52032,346.35672 L 402.20411,353.18934 L 424.77344,348.39277 L 423.58149,341.46046 L 422.28986,341.73295 C 422.49369,345.07616 421.90214,346.86851 417.24516,347.86326 L 415.51707,348.22661 L 410.78476,325.95858 C 410.05142,322.50018 410.57427,321.69816 413.68042,321.03573 L 413.44778,319.93019 L 413.44778,319.93019 z"
         id="path167"
         style="fill:none;stroke:#000000;stroke-width:3.32325602;stroke-miterlimit:3.86369991" />
      <path
         d="M 363.06501,350.48642 C 363.18465,354.02014 362.53108,354.72249 359.36069,354.83767 L 359.40279,355.972 L 370.40941,355.58208 L 370.37176,354.44774 C 367.19915,354.56516 366.49684,353.90274 366.37274,350.36901 L 365.84768,335.23268 C 365.65493,329.56542 367.20136,327.10841 372.5939,326.91788 C 378.25228,326.72072 379.19388,330.22786 379.34899,334.76077 L 379.87405,349.89931 C 379.9981,353.43082 379.34454,354.13315 376.17194,354.25056 L 376.2096,355.38267 L 388.90002,354.93736 L 388.85793,353.80304 C 385.68532,353.92045 384.98298,353.25802 384.85893,349.72429 L 384.33385,334.58796 C 384.10566,327.97024 380.99288,324.53622 373.1079,324.81761 C 363.77841,325.14106 362.36713,330.22786 362.54436,335.34789 L 363.06501,350.48642 L 363.06501,350.48642 z"
         id="path169" />
      <path
         d="M 363.06501,350.48642 C 363.18465,354.02014 362.53108,354.72249 359.36069,354.83767 L 359.40279,355.972 L 370.40941,355.58208 L 370.37176,354.44774 C 367.19915,354.56516 366.49684,353.90274 366.37274,350.36901 L 365.84768,335.23268 C 365.65493,329.56542 367.20136,327.10841 372.5939,326.91788 C 378.25228,326.72072 379.19388,330.22786 379.34899,334.76077 L 379.87405,349.89931 C 379.9981,353.43082 379.34454,354.13315 376.17194,354.25056 L 376.2096,355.38267 L 388.90002,354.93736 L 388.85793,353.80304 C 385.68532,353.92045 384.98298,353.25802 384.85893,349.72429 L 384.33385,334.58796 C 384.10566,327.97024 380.99288,324.53622 373.1079,324.81761 C 363.77841,325.14106 362.36713,330.22786 362.54436,335.34789 L 363.06501,350.48642 L 363.06501,350.48642 z"
         id="path171"
         style="fill:none;stroke:#000000;stroke-width:3.32325602;stroke-miterlimit:3.86369991" />
      <path
         d="M 349.66343,325.07458 L 338.06527,323.23794 C 329.42703,321.86433 323.09734,322.98317 321.04576,335.91948 C 319.06291,348.41935 324.82986,351.72045 333.33295,353.06749 L 344.92891,354.90415 L 345.10615,353.77867 C 341.9291,353.27131 341.40845,352.50475 341.96457,349.0131 L 345.01529,329.75818 C 345.56918,326.26654 346.3025,325.68829 349.48176,326.19342 L 349.66343,325.07458 L 349.66343,325.07458 z M 337.03949,348.23548 C 336.59639,351.00707 336.03365,351.37926 333.66086,351.00707 C 325.24414,349.67334 325.02481,345.00083 326.33197,336.75251 C 327.74989,327.80409 330.03628,324.07984 337.73738,325.29616 C 340.47131,325.72595 340.44693,326.73401 340.09246,328.96945 L 337.03949,348.23548 L 337.03949,348.23548 z"
         id="path173"
         style="fill-rule:evenodd" />
      <path
         d="M 349.66343,325.07458 L 338.06527,323.23794 C 329.42703,321.86433 323.09734,322.98317 321.04576,335.91948 C 319.06291,348.41935 324.82986,351.72045 333.33295,353.06749 L 344.92891,354.90415 L 345.10615,353.77867 C 341.9291,353.27131 341.40845,352.50475 341.96457,349.0131 L 345.01529,329.75818 C 345.56918,326.26654 346.3025,325.68829 349.48176,326.19342 L 349.66343,325.07458 L 349.66343,325.07458 z M 337.03949,348.23548 C 336.59639,351.00707 336.03365,351.37926 333.66086,351.00707 C 325.24414,349.67334 325.02481,345.00083 326.33197,336.75251 C 327.74989,327.80409 330.03628,324.07984 337.73738,325.29616 C 340.47131,325.72595 340.44693,326.73401 340.09246,328.96945 L 337.03949,348.23548 L 337.03949,348.23548 z"
         id="path175"
         style="fill:none;stroke:#000000;stroke-width:3.32325602;stroke-miterlimit:3.86369991" />
      <path
         d="M 312.80851,317.85206 L 300.80715,313.72457 L 300.43716,314.79244 C 303.43695,315.82486 303.85788,316.69334 302.70804,320.03653 L 296.35622,338.47396 C 295.20636,341.81494 294.33788,342.2359 291.33808,341.20125 L 290.97029,342.27577 L 302.96946,346.40324 L 303.33724,345.33758 C 300.29759,344.28522 299.91873,343.4367 301.0708,340.09349 L 307.42484,321.65607 C 308.57468,318.31289 309.39665,317.87642 312.43855,318.92658 L 312.80851,317.85206 L 312.80851,317.85206 z"
         id="path177" />
      <path
         d="M 312.80851,317.85206 L 300.80715,313.72457 L 300.43716,314.79244 C 303.43695,315.82486 303.85788,316.69334 302.70804,320.03653 L 296.35622,338.47396 C 295.20636,341.81494 294.33788,342.2359 291.33808,341.20125 L 290.97029,342.27577 L 302.96946,346.40324 L 303.33724,345.33758 C 300.29759,344.28522 299.91873,343.4367 301.0708,340.09349 L 307.42484,321.65607 C 308.57468,318.31289 309.39665,317.87642 312.43855,318.92658 L 312.80851,317.85206 L 312.80851,317.85206 z"
         id="path179"
         style="fill:none;stroke:#000000;stroke-width:3.32325602;stroke-miterlimit:3.86369991" />
      <path
         d="M 292.57433,310.6162 L 280.97837,305.45409 L 280.51758,306.48872 C 283.41765,307.77817 283.76105,308.67986 282.32098,311.90564 L 274.38284,329.72493 C 272.94497,332.95069 272.04547,333.29632 269.1476,332.0069 L 268.68898,333.04154 L 280.2805,338.20146 L 280.74354,337.16903 C 277.80135,335.85968 277.49563,334.97567 278.9357,331.74988 L 286.87383,313.93281 C 288.3117,310.70706 289.16909,310.3437 292.10907,311.65085 L 292.57433,310.6162 L 292.57433,310.6162 z"
         id="path181" />
      <path
         d="M 292.57433,310.6162 L 280.97837,305.45409 L 280.51758,306.48872 C 283.41765,307.77817 283.76105,308.67986 282.32098,311.90564 L 274.38284,329.72493 C 272.94497,332.95069 272.04547,333.29632 269.1476,332.0069 L 268.68898,333.04154 L 280.2805,338.20146 L 280.74354,337.16903 C 277.80135,335.85968 277.49563,334.97567 278.9357,331.74988 L 286.87383,313.93281 C 288.3117,310.70706 289.16909,310.3437 292.10907,311.65085 L 292.57433,310.6162 L 292.57433,310.6162 z"
         id="path183"
         style="fill:none;stroke:#000000;stroke-width:3.32325602;stroke-miterlimit:3.86369991" />
      <path
         d="M 202.02447,233.51226 L 199.99286,230.12917 L 173.38246,235.06089 C 170.25638,235.67237 169.21287,235.35113 167.59997,232.67036 L 166.63179,233.25082 L 172.44307,242.92815 L 173.41569,242.33883 C 171.99111,239.97487 171.92687,238.89815 172.93934,238.28666 C 173.36471,238.03187 173.96513,237.88124 175.14378,237.65081 L 195.63717,233.80471 L 195.6837,233.8778 L 182.49482,249.794 C 181.69281,250.74666 181.25857,251.1676 180.82875,251.42239 C 179.69885,252.10255 178.85031,251.38914 177.73592,249.53034 L 176.7655,250.11081 L 183.3943,261.144 L 184.36249,260.56354 C 182.61223,257.64574 182.95562,256.80828 185.42813,253.78855 L 202.02447,233.51226 L 202.02447,233.51226 z"
         id="path185"
         style="fill-rule:evenodd" />
      <path
         d="M 202.02447,233.51226 L 199.99286,230.12917 L 173.38246,235.06089 C 170.25638,235.67237 169.21287,235.35113 167.59997,232.67036 L 166.63179,233.25082 L 172.44307,242.92815 L 173.41569,242.33883 C 171.99111,239.97487 171.92687,238.89815 172.93934,238.28666 C 173.36471,238.03187 173.96513,237.88124 175.14378,237.65081 L 195.63717,233.80471 L 195.6837,233.8778 L 182.49482,249.794 C 181.69281,250.74666 181.25857,251.1676 180.82875,251.42239 C 179.69885,252.10255 178.85031,251.38914 177.73592,249.53034 L 176.7655,250.11081 L 183.3943,261.144 L 184.36249,260.56354 C 182.61223,257.64574 182.95562,256.80828 185.42813,253.78855 L 202.02447,233.51226 L 202.02447,233.51226 z"
         id="path187"
         style="fill:none;stroke:#000000;stroke-width:3.32325602;stroke-miterlimit:3.86369991" />
      <path
         d="M 189.83257,210.24283 L 185.0803,198.4785 L 184.03015,198.89943 C 185.21324,201.84606 184.84104,202.73004 181.56208,204.05271 L 163.4747,211.35721 C 160.19798,212.68209 159.31399,212.3099 158.12207,209.36548 L 157.07191,209.79529 L 161.82416,221.5574 L 162.87431,221.13645 C 161.67129,218.14996 162.06344,217.30585 165.34458,215.98542 L 183.42754,208.68087 C 186.70648,207.35602 187.58161,207.68835 188.78242,210.67263 L 189.83257,210.24283 L 189.83257,210.24283 z"
         id="path189" />
      <path
         d="M 189.83257,210.24283 L 185.0803,198.4785 L 184.03015,198.89943 C 185.21324,201.84606 184.84104,202.73004 181.56208,204.05271 L 163.4747,211.35721 C 160.19798,212.68209 159.31399,212.3099 158.12207,209.36548 L 157.07191,209.79529 L 161.82416,221.5574 L 162.87431,221.13645 C 161.67129,218.14996 162.06344,217.30585 165.34458,215.98542 L 183.42754,208.68087 C 186.70648,207.35602 187.58161,207.68835 188.78242,210.67263 L 189.83257,210.24283 L 189.83257,210.24283 z"
         id="path191"
         style="fill:none;stroke:#000000;stroke-width:3.32325602;stroke-miterlimit:3.86369991" />
      <path
         d="M 181.95423,189.95324 L 176.61485,168.54482 L 170.16776,169.8697 L 170.48679,171.14358 C 173.29604,170.58089 175.18143,171.42498 176.12303,175.20463 L 177.13329,179.2479 C 177.70489,181.53211 177.57197,181.9464 174.62313,182.67309 L 165.51077,184.9484 L 164.07954,179.18146 C 163.36837,176.32787 164.17704,175.65657 166.82012,174.99415 L 166.52324,173.81107 L 157.41531,176.07754 L 157.70996,177.26947 C 160.61451,176.54058 161.34117,176.83081 162.05236,179.68436 L 163.48801,185.45132 L 155.70051,187.39433 C 153.23466,188.00581 152.40827,187.70226 151.87433,185.54214 L 151.17202,182.72848 C 149.94463,177.79678 151.7835,176.73111 154.11642,175.96899 L 153.7974,174.69726 L 147.48099,176.54943 L 152.64311,197.26217 L 153.74421,196.98081 C 152.97988,193.90348 153.4717,193.08595 156.90796,192.22636 L 175.83059,187.51173 C 179.25795,186.6588 180.08657,187.15506 180.85535,190.23461 L 181.95423,189.95324 L 181.95423,189.95324 z"
         id="path193" />
      <path
         d="M 181.95423,189.95324 L 176.61485,168.54482 L 170.16776,169.8697 L 170.48679,171.14358 C 173.29604,170.58089 175.18143,171.42498 176.12303,175.20463 L 177.13329,179.2479 C 177.70489,181.53211 177.57197,181.9464 174.62313,182.67309 L 165.51077,184.9484 L 164.07954,179.18146 C 163.36837,176.32787 164.17704,175.65657 166.82012,174.99415 L 166.52324,173.81107 L 157.41531,176.07754 L 157.70996,177.26947 C 160.61451,176.54058 161.34117,176.83081 162.05236,179.68436 L 163.48801,185.45132 L 155.70051,187.39433 C 153.23466,188.00581 152.40827,187.70226 151.87433,185.54214 L 151.17202,182.72848 C 149.94463,177.79678 151.7835,176.73111 154.11642,175.96899 L 153.7974,174.69726 L 147.48099,176.54943 L 152.64311,197.26217 L 153.74421,196.98081 C 152.97988,193.90348 153.4717,193.08595 156.90796,192.22636 L 175.83059,187.51173 C 179.25795,186.6588 180.08657,187.15506 180.85535,190.23461 L 181.95423,189.95324 L 181.95423,189.95324 z"
         id="path195"
         style="fill:none;stroke:#000000;stroke-width:3.32325602;stroke-miterlimit:3.86369991" />
      <path
         d="M 174.30188,157.60021 L 173.74801,147.05221 L 172.62031,147.10983 C 172.78869,150.32674 172.13955,150.99805 168.60803,151.17971 L 148.36276,152.23872 L 148.35834,152.15675 L 173.16975,135.92818 L 172.94599,131.62345 L 148.12569,132.92617 C 144.58977,133.10784 143.883,132.55394 143.71243,129.29495 L 142.57809,129.357 L 143.12974,139.89835 L 144.26187,139.84075 C 144.0957,136.67259 144.7382,135.96138 148.27414,135.77974 L 167.24993,134.77833 L 167.25436,134.86917 L 143.67032,150.31566 L 144.13779,159.18209 L 145.26991,159.1245 C 145.09931,155.95633 145.74626,155.24515 149.27776,155.05462 L 168.75424,154.0377 C 172.28578,153.85602 173.00139,154.49188 173.16753,157.66227 L 174.30188,157.60021 L 174.30188,157.60021 z"
         id="path197"
         style="fill-rule:evenodd" />
      <path
         d="M 174.30188,157.60021 L 173.74801,147.05221 L 172.62031,147.10983 C 172.78869,150.32674 172.13955,150.99805 168.60803,151.17971 L 148.36276,152.23872 L 148.35834,152.15675 L 173.16975,135.92818 L 172.94599,131.62345 L 148.12569,132.92617 C 144.58977,133.10784 143.883,132.55394 143.71243,129.29495 L 142.57809,129.357 L 143.12974,139.89835 L 144.26187,139.84075 C 144.0957,136.67259 144.7382,135.96138 148.27414,135.77974 L 167.24993,134.77833 L 167.25436,134.86917 L 143.67032,150.31566 L 144.13779,159.18209 L 145.26991,159.1245 C 145.09931,155.95633 145.74626,155.24515 149.27776,155.05462 L 168.75424,154.0377 C 172.28578,153.85602 173.00139,154.49188 173.16753,157.66227 L 174.30188,157.60021 L 174.30188,157.60021 z"
         id="path199"
         style="fill:none;stroke:#000000;stroke-width:3.32325602;stroke-miterlimit:3.86369991" />
      <path
         d="M 172.90389,119.28087 L 174.37721,108.82592 L 173.25616,108.66862 C 172.8042,111.85229 172.04428,112.38621 168.54157,111.8944 L 148.46911,109.07405 L 148.48017,108.9832 L 175.93029,97.783845 L 176.52623,93.519 L 151.91643,90.060605 C 148.41814,89.568756 147.82217,88.890804 148.27636,85.660596 L 147.1553,85.503309 L 145.68201,95.96048 L 146.80527,96.117781 C 147.24835,92.97399 148.01713,92.400179 151.51541,92.892014 L 170.3339,95.535116 L 170.32284,95.625945 L 144.22864,106.28474 L 142.99016,115.08248 L 144.11121,115.23537 C 144.55429,112.096 145.32308,111.51777 148.82579,112.00958 L 168.13613,114.72801 C 171.63883,115.21544 172.21931,115.98422 171.77619,119.12802 L 172.90389,119.28087 L 172.90389,119.28087 z"
         id="path201" />
      <path
         d="M 172.90389,119.28087 L 174.37721,108.82592 L 173.25616,108.66862 C 172.8042,111.85229 172.04428,112.38621 168.54157,111.8944 L 148.46911,109.07405 L 148.48017,108.9832 L 175.93029,97.783845 L 176.52623,93.519 L 151.91643,90.060605 C 148.41814,89.568756 147.82217,88.890804 148.27636,85.660596 L 147.1553,85.503309 L 145.68201,95.96048 L 146.80527,96.117781 C 147.24835,92.97399 148.01713,92.400179 151.51541,92.892014 L 170.3339,95.535116 L 170.32284,95.625945 L 144.22864,106.28474 L 142.99016,115.08248 L 144.11121,115.23537 C 144.55429,112.096 145.32308,111.51777 148.82579,112.00958 L 168.13613,114.72801 C 171.63883,115.21544 172.21931,115.98422 171.77619,119.12802 L 172.90389,119.28087 L 172.90389,119.28087 z"
         id="path203"
         style="fill:none;stroke:#000000;stroke-width:3.32325602;stroke-miterlimit:3.86369991" />
      <path
         d="M 179.38646,81.444496 L 186.21021,60.450398 L 180.04004,58.161777 L 179.63459,59.411318 C 182.31095,60.426011 183.46743,62.134173 182.26662,65.84292 L 180.97498,69.810889 C 180.24608,72.048555 179.9204,72.325489 177.02917,71.386121 L 168.10068,68.481593 L 169.93733,62.836484 C 170.8479,60.036096 171.89806,59.898726 174.48354,60.738407 L 174.86019,59.573061 L 165.93392,56.672946 L 165.55951,57.838319 C 168.4042,58.762169 168.86282,59.389166 167.95446,62.189568 L 166.12224,67.83909 L 158.48762,65.357734 C 156.0727,64.573446 155.53435,63.873343 156.22557,61.76419 L 157.11844,59.003665 C 158.68923,54.173864 160.81168,54.244762 163.19778,54.827442 L 163.60321,53.577901 L 157.26687,51.807711 L 150.66689,72.108365 L 151.74142,72.460638 C 152.72509,69.440905 153.58248,69.006671 156.94561,70.098911 L 175.4916,76.12508 C 178.85918,77.221761 179.29784,78.072517 178.31195,81.092237 L 179.38646,81.444496 L 179.38646,81.444496 z"
         id="path205" />
      <path
         d="M 179.38646,81.444496 L 186.21021,60.450398 L 180.04004,58.161777 L 179.63459,59.411318 C 182.31095,60.426011 183.46743,62.134173 182.26662,65.84292 L 180.97498,69.810889 C 180.24608,72.048555 179.9204,72.325489 177.02917,71.386121 L 168.10068,68.481593 L 169.93733,62.836484 C 170.8479,60.036096 171.89806,59.898726 174.48354,60.738407 L 174.86019,59.573061 L 165.93392,56.672946 L 165.55951,57.838319 C 168.4042,58.762169 168.86282,59.389166 167.95446,62.189568 L 166.12224,67.83909 L 158.48762,65.357734 C 156.0727,64.573446 155.53435,63.873343 156.22557,61.76419 L 157.11844,59.003665 C 158.68923,54.173864 160.81168,54.244762 163.19778,54.827442 L 163.60321,53.577901 L 157.26687,51.807711 L 150.66689,72.108365 L 151.74142,72.460638 C 152.72509,69.440905 153.58248,69.006671 156.94561,70.098911 L 175.4916,76.12508 C 178.85918,77.221761 179.29784,78.072517 178.31195,81.092237 L 179.38646,81.444496 L 179.38646,81.444496 z"
         id="path207"
         style="fill:none;stroke:#000000;stroke-width:3.32325602;stroke-miterlimit:3.86369991" />
      <path
         d="M 190.24685,50.172666 L 195.36689,40.940664 L 194.37434,40.386784 C 192.81463,43.202689 191.91292,43.426463 188.82006,41.713873 L 171.0894,31.885906 L 171.13594,31.808358 L 200.77492,31.188023 L 202.86637,27.42388 L 181.12784,15.371544 C 178.03501,13.658955 177.72704,12.814847 179.3089,9.9612832 L 178.31637,9.4118192 L 173.19634,18.646044 L 174.1889,19.193275 C 175.72645,16.421686 176.65032,16.15583 179.74758,17.868407 L 196.36609,27.082698 L 196.31955,27.162453 L 168.14056,27.762843 L 163.83141,35.534831 L 164.82395,36.082074 C 166.36152,33.310472 167.2854,33.042396 170.38265,34.759414 L 187.43538,44.210748 C 190.52823,45.925544 190.79409,46.853849 189.25431,49.627657 L 190.24685,50.172666 L 190.24685,50.172666 z"
         id="path209" />
      <path
         d="M 190.24685,50.172666 L 195.36689,40.940664 L 194.37434,40.386784 C 192.81463,43.202689 191.91292,43.426463 188.82006,41.713873 L 171.0894,31.885906 L 171.13594,31.808358 L 200.77492,31.188023 L 202.86637,27.42388 L 181.12784,15.371544 C 178.03501,13.658955 177.72704,12.814847 179.3089,9.9612832 L 178.31637,9.4118192 L 173.19634,18.646044 L 174.1889,19.193275 C 175.72645,16.421686 176.65032,16.15583 179.74758,17.868407 L 196.36609,27.082698 L 196.31955,27.162453 L 168.14056,27.762843 L 163.83141,35.534831 L 164.82395,36.082074 C 166.36152,33.310472 167.2854,33.042396 170.38265,34.759414 L 187.43538,44.210748 C 190.52823,45.925544 190.79409,46.853849 189.25431,49.627657 L 190.24685,50.172666 L 190.24685,50.172666 z"
         id="path211"
         style="fill:none;stroke:#000000;stroke-width:3.32325602;stroke-miterlimit:3.86369991" />
      <path
         d="M 205.11954,-13.305946 L 199.48772,-17.519834 C 198.4575,-16.604831 196.11794,-14.652972 194.20155,-12.291244 C 190.03638,-7.1512715 189.85472,-2.4566297 193.65873,0.62514598 C 196.47908,2.9093284 199.56526,2.5526334 202.65369,1.5512183 C 207.3572,-0.0040672859 211.96545,-3.0991199 215.41721,-0.30093985 C 217.56844,1.4404466 217.82324,4.5044882 215.34188,7.5729632 C 211.60652,12.185641 207.66957,10.340122 205.53161,9.3099125 L 204.70523,10.326839 L 210.68933,14.826521 C 211.98095,13.882713 214.46675,12.108093 216.71992,9.3254165 C 221.05788,3.9727675 222.33179,-1.3488723 217.36683,-5.3744424 C 214.96745,-7.3130047 212.41961,-7.3396009 209.68126,-6.697095 C 205.5006,-5.7089849 199.02691,-1.0342657 195.57292,-3.832447 C 193.7407,-5.3168339 193.58342,-8.0707116 195.89197,-10.926495 C 198.92056,-14.657401 202.16183,-13.547436 204.29316,-12.286813 L 205.11954,-13.305946 L 205.11954,-13.305946 z"
         id="path213" />
      <path
         d="M 205.11954,-13.305946 L 199.48772,-17.519834 C 198.4575,-16.604831 196.11794,-14.652972 194.20155,-12.291244 C 190.03638,-7.1512715 189.85472,-2.4566297 193.65873,0.62514598 C 196.47908,2.9093284 199.56526,2.5526334 202.65369,1.5512183 C 207.3572,-0.0040672859 211.96545,-3.0991199 215.41721,-0.30093985 C 217.56844,1.4404466 217.82324,4.5044882 215.34188,7.5729632 C 211.60652,12.185641 207.66957,10.340122 205.53161,9.3099125 L 204.70523,10.326839 L 210.68933,14.826521 C 211.98095,13.882713 214.46675,12.108093 216.71992,9.3254165 C 221.05788,3.9727675 222.33179,-1.3488723 217.36683,-5.3744424 C 214.96745,-7.3130047 212.41961,-7.3396009 209.68126,-6.697095 C 205.5006,-5.7089849 199.02691,-1.0342657 195.57292,-3.832447 C 193.7407,-5.3168339 193.58342,-8.0707116 195.89197,-10.926495 C 198.92056,-14.657401 202.16183,-13.547436 204.29316,-12.286813 L 205.11954,-13.305946 L 205.11954,-13.305946 z"
         id="path215"
         style="fill:none;stroke:#000000;stroke-width:3.32325602;stroke-miterlimit:3.86369991" />
      <path
         d="M 231.56159,-7.7760557 L 240.99519,-16.268075 L 240.23749,-17.107752 C 237.88018,-14.985298 236.92087,-15.036255 234.55472,-17.666057 L 221.50538,-32.155452 C 219.13481,-34.78747 219.18578,-35.746784 221.54749,-37.86702 L 220.78979,-38.711129 L 211.35618,-30.2191 L 212.11167,-29.374995 C 214.50663,-31.530681 215.43271,-31.448706 217.79886,-28.821119 L 230.84375,-14.327294 C 233.21433,-11.699706 233.19662,-10.771409 230.80166,-8.6157253 L 231.56159,-7.7760557 L 231.56159,-7.7760557 z"
         id="path217" />
      <path
         d="M 231.56159,-7.7760557 L 240.99519,-16.268075 L 240.23749,-17.107752 C 237.88018,-14.985298 236.92087,-15.036255 234.55472,-17.666057 L 221.50538,-32.155452 C 219.13481,-34.78747 219.18578,-35.746784 221.54749,-37.86702 L 220.78979,-38.711129 L 211.35618,-30.2191 L 212.11167,-29.374995 C 214.50663,-31.530681 215.43271,-31.448706 217.79886,-28.821119 L 230.84375,-14.327294 C 233.21433,-11.699706 233.19662,-10.771409 230.80166,-8.6157253 L 231.56159,-7.7760557 L 231.56159,-7.7760557 z"
         id="path219"
         style="fill:none;stroke:#000000;stroke-width:3.32325602;stroke-miterlimit:3.86369991" />
      <path
         d="M 251.56979,-52.679878 L 247.31382,-58.280672 C 246.07312,-57.684704 243.2816,-56.45288 240.79579,-54.711495 C 235.37223,-50.92077 233.90115,-46.45653 236.71262,-42.448684 C 238.78854,-39.475476 241.85701,-38.965911 245.10052,-39.07447 C 250.04995,-39.276083 255.33172,-40.979805 257.88175,-37.341946 C 259.47027,-35.075486 258.8743,-32.055754 255.63966,-29.793726 C 250.77664,-26.390712 247.50435,-29.248711 245.72973,-30.828365 L 244.6552,-30.075093 L 249.17263,-24.102097 C 250.67029,-24.653756 253.54823,-25.672889 256.48377,-27.726659 C 262.12445,-31.681333 264.82293,-36.444667 261.15847,-41.679903 C 259.38831,-44.203361 256.9446,-44.930047 254.13534,-45.067407 C 249.8417,-45.269019 242.33113,-42.561673 239.7833,-46.199531 C 238.43185,-48.131451 239.03448,-50.823286 242.0409,-52.93023 C 245.97786,-55.688534 248.79156,-53.723382 250.49525,-51.928824 L 251.56979,-52.679878 L 251.56979,-52.679878 z"
         id="path221" />
      <path
         d="M 251.56979,-52.679878 L 247.31382,-58.280672 C 246.07312,-57.684704 243.2816,-56.45288 240.79579,-54.711495 C 235.37223,-50.92077 233.90115,-46.45653 236.71262,-42.448684 C 238.78854,-39.475476 241.85701,-38.965911 245.10052,-39.07447 C 250.04995,-39.276083 255.33172,-40.979805 257.88175,-37.341946 C 259.47027,-35.075486 258.8743,-32.055754 255.63966,-29.793726 C 250.77664,-26.390712 247.50435,-29.248711 245.72973,-30.828365 L 244.6552,-30.075093 L 249.17263,-24.102097 C 250.67029,-24.653756 253.54823,-25.672889 256.48377,-27.726659 C 262.12445,-31.681333 264.82293,-36.444667 261.15847,-41.679903 C 259.38831,-44.203361 256.9446,-44.930047 254.13534,-45.067407 C 249.8417,-45.269019 242.33113,-42.561673 239.7833,-46.199531 C 238.43185,-48.131451 239.03448,-50.823286 242.0409,-52.93023 C 245.97786,-55.688534 248.79156,-53.723382 250.49525,-51.928824 L 251.56979,-52.679878 L 251.56979,-52.679878 z"
         id="path223"
         style="fill:none;stroke:#000000;stroke-width:3.32325602;stroke-miterlimit:3.86369991" />
      <path
         d="M 476.75801,-60.19487 C 476.75801,-61.836558 478.08954,-63.168073 479.73565,-63.168073 C 481.37734,-63.168073 482.70443,-61.836558 482.70443,-60.19487 C 482.70443,-58.54875 481.37734,-57.21723 479.73565,-57.21723 C 478.08954,-57.21723 476.75801,-58.54875 476.75801,-60.19487 L 476.75801,-60.19487 z"
         id="path225" />
      <path
         d="M 483.63938,-51.981997 C 483.63938,-53.623685 484.97089,-54.9552 486.61701,-54.9552 C 488.25872,-54.9552 489.59022,-53.623685 489.59022,-51.981997 C 489.59022,-50.340308 488.25872,-49.004358 486.61701,-49.004358 C 484.97089,-49.004358 483.63938,-50.340308 483.63938,-51.981997 L 483.63938,-51.981997 z"
         id="path227" />
      <path
         d="M 481.46817,-39.329253 C 481.46817,-40.975373 482.79971,-42.306891 484.44139,-42.306891 C 486.08751,-42.306891 487.4146,-40.975373 487.4146,-39.329253 C 487.4146,-37.687565 486.08751,-36.356046 484.44139,-36.356046 C 482.79971,-36.356046 481.46817,-37.687565 481.46817,-39.329253 L 481.46817,-39.329253 z"
         id="path229" />
      <path
         d="M 468.28371,-35.740139 C 468.28371,-37.381827 469.61967,-38.713342 471.25692,-38.713342 C 472.90303,-38.713342 474.23456,-37.381827 474.23456,-35.740139 C 474.23456,-34.094019 472.90303,-32.762501 471.25692,-32.762501 C 469.61967,-32.762501 468.28371,-34.094019 468.28371,-35.740139 L 468.28371,-35.740139 z"
         id="path231" />
      <path
         d="M 461.0501,-44.930047 C 461.0501,-46.571736 462.38384,-47.903252 464.02775,-47.903252 C 465.66943,-47.903252 466.99653,-46.571736 466.99653,-44.930047 C 466.99653,-43.283927 465.66943,-41.952409 464.02775,-41.952409 C 462.38162,-41.952409 461.0501,-43.283927 461.0501,-44.930047 L 461.0501,-44.930047 z"
         id="path233" />
      <path
         d="M 464.20056,-56.77856 C 464.20056,-58.420249 465.53206,-59.756198 467.17819,-59.756198 C 468.81544,-59.756198 470.14697,-58.420249 470.14697,-56.77856 C 470.14697,-55.136872 468.81544,-53.805356 467.17819,-53.805356 C 465.53206,-53.805356 464.20056,-55.136872 464.20056,-56.77856 L 464.20056,-56.77856 z"
         id="path235" />
      <path
         d="M 518.60224,261.5539 C 518.60224,259.91663 519.93376,258.58291 521.57544,258.58291 C 523.22156,258.58291 524.55308,259.91663 524.55308,261.5539 C 524.55308,263.19999 523.22156,264.53153 521.57544,264.53153 C 519.93376,264.53153 518.60224,263.19999 518.60224,261.5539 L 518.60224,261.5539 z"
         id="path237" />
      <path
         d="M 525.48359,269.76677 C 525.48359,268.1295 526.81513,266.79798 528.4568,266.79798 C 530.0985,266.79798 531.43443,268.1295 531.43443,269.76677 C 531.43443,271.41288 530.0985,272.74661 528.4568,272.74661 C 526.81513,272.74661 525.48359,271.41288 525.48359,269.76677 L 525.48359,269.76677 z"
         id="path239" />
      <path
         d="M 523.3124,282.41507 C 523.3124,280.77781 524.64393,279.4463 526.28116,279.4463 C 527.92729,279.4463 529.25882,280.77781 529.25882,282.41507 C 529.25882,284.06119 527.92729,285.39493 526.28116,285.39493 C 524.64393,285.39493 523.3124,284.06119 523.3124,282.41507 L 523.3124,282.41507 z"
         id="path241" />
      <path
         d="M 510.12795,286.01304 C 510.12795,284.36914 511.45946,283.03542 513.10114,283.03542 C 514.74283,283.03542 516.07435,284.36914 516.07435,286.01304 C 516.07435,287.65917 514.74283,288.9929 513.10114,288.9929 C 511.45946,288.9929 510.12795,287.65917 510.12795,286.01304 L 510.12795,286.01304 z"
         id="path243" />
      <path
         d="M 502.89432,276.82536 C 502.89432,275.17925 504.22584,273.8455 505.86753,273.8455 C 507.51364,273.8455 508.84074,275.17925 508.84074,276.82536 C 508.84074,278.46261 507.51364,279.79412 505.86753,279.79412 C 504.22584,279.79412 502.89432,278.46261 502.89432,276.82536 L 502.89432,276.82536 z"
         id="path245" />
      <path
         d="M 506.04477,264.97018 C 506.04477,263.32408 507.37185,261.99256 509.01797,261.99256 C 510.65967,261.99256 511.99119,263.32408 511.99119,264.97018 C 511.99119,266.61632 510.65967,267.94782 509.01797,267.94782 C 507.37185,267.94782 506.04477,266.61632 506.04477,264.97018 L 506.04477,264.97018 z"
         id="path247" />
      <path
         d="M 485.19467,182.19233 L 477.50907,195.50307 L 469.82128,182.19233 L 485.19467,182.19233 L 485.19467,182.19233 z M 485.19467,160.88584 L 477.50907,147.56621 L 469.82128,160.88584 L 485.19467,160.88584 L 485.19467,160.88584 z"
         id="path249"
         style="fill:none;stroke:#000000;stroke-width:3.32325602;stroke-linecap:round;stroke-linejoin:round;stroke-miterlimit:3.86369991" />
      <path
         d="M 470.45049,171.22557 C 470.45049,167.32852 473.60979,164.1692 477.51128,164.1692 C 481.40837,164.1692 484.56767,167.32852 484.56767,171.22557 C 484.56767,175.12265 481.40837,178.28197 477.51128,178.28197 C 473.60979,178.27975 470.45049,175.12043 470.45049,171.22557 L 470.45049,171.22557 z M 477.51128,120.04522 L 477.51128,139.03653 M 477.51128,199.23177 L 477.51128,221.51751"
         id="path251"
         style="fill:none;stroke:#000000;stroke-width:3.32325602;stroke-linecap:round;stroke-miterlimit:3.86369991" />
      <path
         d="M 461.61063,110.65371 L 492.16685,110.65371 M 461.61063,234.74629 L 492.16685,234.74629"
         id="path253"
         style="fill:none;stroke:#000000;stroke-width:3.32325602;stroke-linecap:round;stroke-linejoin:round;stroke-miterlimit:3.86369991" />
      <path
         d="M 457.64044,57.935798 L 501.17952,57.935798 L 501.17952,72.821752 L 457.64044,72.821752 L 457.64044,57.935798 L 457.64044,57.935798 z M 456.84286,85.456783 L 500.38193,85.456783 L 500.38193,100.34274 L 456.84286,100.34274 L 456.84286,85.456783 L 456.84286,85.456783 z M 461.75243,101.178 L 494.56403,101.178 L 494.56403,246.46631 L 461.75243,246.46631 L 461.75243,101.178 L 461.75243,101.178 z"
         id="path255"
         style="fill:none;stroke:#000000;stroke-width:3.32325602;stroke-miterlimit:3.86369991" />
      <path
         d="M 459.49483,75.475942 L 459.49483,82.312978 C 461.42231,82.403822 462.74497,81.894247 464.11416,80.538372 C 465.59854,79.062838 466.12804,77.551867 465.88877,75.475942 L 459.49483,75.475942 L 459.49483,75.475942 z M 497.70339,75.475942 L 497.70339,83.223557 C 495.30844,83.143803 493.71771,82.370593 492.17349,80.538372 C 490.82425,78.938765 490.3457,77.569593 490.39887,75.475942 L 497.70339,75.475942 L 497.70339,75.475942 z M 466.79932,75.475942 C 466.8104,77.350248 467.14272,78.50009 468.13085,80.090841 C 469.05472,81.588514 469.8545,82.348426 471.39429,83.196963 C 473.08249,82.208849 473.95541,81.340382 474.94352,79.647737 C 475.80756,78.174425 476.1266,77.175222 476.27505,75.475942 L 466.79932,75.475942 L 466.79932,75.475942 z M 478.07403,75.475942 C 478.08292,77.350248 478.413,78.50009 479.40113,80.090841 C 480.32498,81.588514 481.12699,82.348426 482.66456,83.196963 C 484.76041,82.463643 485.93686,81.530913 487.12215,79.647737 C 488.03715,78.205433 488.36283,77.179649 488.45587,75.475942 L 478.07403,75.475942 L 478.07403,75.475942 z"
         id="path257"
         style="fill:none;stroke:#000000;stroke-width:3.32325602;stroke-linecap:round;stroke-miterlimit:3.86369991" />
      <polygon
         points="157.138,170.402 178.022,170.402 178.022,177.123 157.138,177.123 157.138,170.402 "
         transform="matrix(2.2155037,0,0,2.2155037,105.97352,-131.22613)"
         id="polygon259"
         style="fill:none;stroke:#000000;stroke-width:1.5;stroke-miterlimit:3.86369991" />
      <path
         d="M 242.43083,75.316421 L 242.43083,82.149027 C 244.35831,82.2443 245.68098,81.734725 247.05016,80.37885 C 248.53455,78.901109 249.06405,77.392346 248.82478,75.316421 L 242.43083,75.316421 L 242.43083,75.316421 z M 280.6372,75.316421 L 280.6372,83.064047 C 278.23781,82.979853 276.65151,82.21107 275.1073,80.37885 C 273.75807,78.779257 273.27951,77.405643 273.33268,75.316421 L 280.6372,75.316421 L 280.6372,75.316421 z M 249.73536,75.316421 C 249.74644,77.190726 250.07876,78.338374 251.06686,79.935746 C 251.9885,81.428991 252.78611,82.191139 254.32587,83.037441 C 256.01188,82.049342 256.88921,81.176433 257.87511,79.488215 C 258.74359,78.014902 259.06261,77.015699 259.20663,75.316421 L 249.73536,75.316421 L 249.73536,75.316421 z M 261.00561,75.316421 C 261.01891,77.190726 261.34902,78.338374 262.33714,79.935746 C 263.26101,81.428991 264.06303,82.191139 265.60058,83.037441 C 267.69643,82.299694 268.87287,81.366963 270.05816,79.488215 C 270.97318,78.045924 271.29886,77.020142 271.38968,75.316421 L 261.00561,75.316421 L 261.00561,75.316421 z"
         id="path261"
         style="fill:none;stroke:#000000;stroke-width:3.32325602;stroke-linecap:round;stroke-miterlimit:3.86369991" />
      <line
         stroke-miterlimit="3.8637"
         x1="246.21492"
         y1="234.74626"
         x2="276.76669"
         y2="234.74626"
         id="line263"
         style="fill:none;stroke:#000000;stroke-width:3.32325602;stroke-linecap:round;stroke-linejoin:round;stroke-miterlimit:3.86369991" />
      <path
         d="M 245.25559,101.178 L 278.06723,101.178 L 278.06723,245.63105 L 245.25559,245.63105 L 245.25559,101.178 L 245.25559,101.178 z M 238.52712,85.456783 L 282.0662,85.456783 L 282.0662,100.34274 L 238.52712,100.34274 L 238.52712,85.456783 L 238.52712,85.456783 z"
         id="path265"
         style="fill:none;stroke:#000000;stroke-width:3.32325602;stroke-miterlimit:3.86369991" />
      <path
         d="M 269.23844,180.00784 L 261.55506,193.32744 L 253.86948,180.00784 L 269.23844,180.00784 L 269.23844,180.00784 z M 269.23844,158.69913 L 261.55506,145.39059 L 253.86948,158.69913 L 269.23844,158.69913 L 269.23844,158.69913 z"
         id="path267"
         style="fill:none;stroke:#000000;stroke-width:3.32325602;stroke-linecap:round;stroke-linejoin:round;stroke-miterlimit:3.86369991" />
      <path
         d="M 254.49424,169.04774 C 254.49424,165.15289 257.65355,161.98472 261.55506,161.98472 C 265.44992,161.98472 268.61146,165.15511 268.61146,169.04774 C 268.61146,172.94481 265.45215,176.10633 261.55506,176.10633 C 257.65355,176.10633 254.49424,172.94481 254.49424,169.04774 L 254.49424,169.04774 z M 261.55506,117.86293 L 261.55506,136.86313 M 261.55506,197.05835 L 261.55506,219.34412"
         id="path269"
         style="fill:none;stroke:#000000;stroke-width:3.32325602;stroke-linecap:round;stroke-miterlimit:3.86369991" />
      <polygon
         points="59.008,170.402 79.891,170.402 79.891,177.123 59.008,177.123 59.008,170.402 "
         transform="matrix(2.2155037,0,0,2.2155037,105.97352,-131.22613)"
         id="polygon271"
         style="fill:none;stroke:#000000;stroke-width:1.5;stroke-miterlimit:3.86369991" />
      <line
         stroke-miterlimit="3.8637"
         x1="246.21492"
         y1="110.65369"
         x2="276.76669"
         y2="110.65369"
         id="line273"
         style="fill:none;stroke:#000000;stroke-width:3.32325602;stroke-linecap:round;stroke-linejoin:round;stroke-miterlimit:3.86369991" />
      <path
         d="M 349.59254,-28.183052 C 348.15247,-26.767347 346.15186,-25.927671 343.97625,-26.007429 C 339.77342,-26.151437 336.48563,-29.680736 336.63185,-33.88133 C 336.78028,-38.08414 340.30515,-41.376378 344.51017,-41.227939 M 332.42461,-22.843691 C 331.34121,-21.1444 329.57547,-19.874914 327.44415,-19.460615 C 323.31222,-18.658603 319.31767,-21.354871 318.51566,-25.482354 C 317.71366,-29.614268 320.40993,-33.613253 324.53741,-34.413051 M 317.72252,-15.503726 C 317.01577,-13.620548 315.55354,-12.012092 313.55293,-11.161338 C 309.68023,-9.5196493 305.20935,-11.327501 303.56766,-15.197985 C 301.92154,-19.070688 303.72939,-23.539359 307.59987,-25.181048 M 303.65186,-6.1853125 C 303.35054,-4.191357 302.25387,-2.3170463 300.47481,-1.0697218 C 297.02972,1.3407511 292.2819,0.50107069 289.86476,-2.9440325 C 287.45431,-6.3891474 288.28955,-11.132537 291.73907,-13.547436 M 290.80414,6.8019607 C 290.92377,8.8158563 290.24141,10.876278 288.76145,12.469222 C 285.89239,15.542129 281.07586,15.710506 278.00074,12.841439 C 274.9234,9.9767874 274.75503,5.155854 277.6241,2.0807227 M 280.86982,21.100821 C 281.40818,23.03939 281.17114,25.19951 280.05008,27.06496 C 277.88334,30.667373 273.20638,31.837159 269.60399,29.665963 C 265.99714,27.503622 264.83181,22.824487 266.99854,19.219867 M 273.20196,36.403312 C 274.09925,38.202303 274.27651,40.3735 273.5365,42.413977 C 272.09643,46.366427 267.72524,48.402488 263.77056,46.966831 C 259.82033,45.52676 257.78205,41.155566 259.21992,37.205336 M 391.26615,-27.37661 C 392.70624,-25.967551 394.70685,-25.127874 396.87803,-25.200986 C 401.08085,-25.344994 404.36865,-28.87429 404.22244,-33.077102 C 404.07842,-37.282128 400.54911,-40.572151 396.34411,-40.421497 M 408.43189,-20.969373 C 409.51526,-19.274513 411.28104,-18.00503 413.41677,-17.586298 C 417.54425,-16.788717 421.54325,-19.480554 422.34525,-23.612471 C 423.14726,-27.739954 420.451,-31.736721 416.31908,-32.543165 M 423.13839,-12.565968 C 423.84071,-10.680574 425.30738,-9.0721186 427.30356,-8.2235851 C 431.18067,-6.5774635 435.64714,-8.3853115 437.29324,-12.255797 C 438.93494,-16.126282 437.1271,-20.597171 433.2566,-22.238859 M 437.20906,-3.2431323 C 437.50593,-1.2536074 438.60261,0.62957648 440.38609,1.8746861 C 443.82677,4.28516 448.57903,3.4499088 450.9917,0.00037666297 C 453.40662,-3.4403094 452.56693,-8.1925594 449.12181,-10.605246 M 450.05678,9.7419393 C 449.93269,11.753615 450.61508,13.820683 452.09502,15.4092 C 454.9619,18.486535 459.78504,18.652692 462.86017,15.781405 C 465.9375,12.916753 466.10366,8.0980276 463.23235,5.0207014 M 459.98666,24.0408 C 459.44829,25.981576 459.68536,28.143917 460.80639,30.004939 C 462.97317,33.611766 467.65008,34.777138 471.25692,32.61037 C 474.85935,30.448042 476.02912,25.766686 473.86234,22.16426 M 467.65452,39.345498 C 466.75724,41.14893 466.57557,43.315686 467.31997,45.353954 C 468.75784,49.308626 473.13124,51.346883 477.08371,49.906812 C 481.03393,48.468945 483.07223,44.099985 481.63435,40.1453"
         id="path275"
         style="fill:none;stroke:#000000;stroke-width:3.32325602;stroke-miterlimit:3.86369991" />
      <path
         d="M 359.44044,-38.159469 C 359.44044,-46.580597 363.8781,-53.404348 369.35927,-53.404348 C 374.84042,-53.404348 379.28248,-46.580597 379.28248,-38.159469 C 379.28248,-29.733907 374.84042,-22.910154 369.35927,-22.910154 C 363.8781,-22.910154 359.44044,-29.733907 359.44044,-38.159469 L 359.44044,-38.159469 z"
         id="path277"
         style="fill:none;stroke:#000000;stroke-width:3.32325602;stroke-miterlimit:3.86369991" />
      <path
         d="M 361.78225,-52.077263 C 306.15317,-45.014237 253.79636,1.8237245 245.99558,56.99199 L 275.85836,57.191375 C 283.83196,12.998727 322.47478,-20.519627 368.96269,-20.519627 M 369.00698,-20.519627 C 415.73862,-20.519627 454.10892,12.540121 461.80116,57.076172 L 491.63514,56.99199 C 483.96727,-1.4662897 436.57543,-47.56871 377.10909,-51.060345"
         id="path279"
         style="fill:none;stroke:#000000;stroke-width:3.32325602;stroke-miterlimit:3.86369991" />
      <path
         d="M 377.15119,141.30521 L 381.19226,141.30521 M 357.73229,117.04322 L 345.60019,120.5415 L 342.63142,122.70604 L 347.76031,131.87379 L 350.17964,143.19059 L 368.69905,141.57548 M 390.68349,141.77711 L 394.64258,141.77711 L 400.0595,129.98619 L 399.26191,126.74712 L 393.04964,123.51693 M 352.07167,120.00314 L 357.19171,129.98398 L 358.00258,135.37431 L 365.8189,135.37431 M 375.79974,133.49555 L 383.35238,132.68468"
         id="path281"
         style="fill:none;stroke:#000000;stroke-width:3.32325602;stroke-linecap:round;stroke-miterlimit:3.86369991" />
      <path
         d="M 371.4219,127.7707 L 384.50887,127.7707 M 342.30132,226.83694 C 341.06506,230.31749 340.43586,232.30482 339.44773,235.86069 C 338.31119,239.95494 337.13919,242.22138 336.95752,246.46408 C 336.91544,247.43449 336.91544,247.97949 336.95752,248.95431 M 360.45959,228.58054 L 357.13633,239.17729 L 356.58243,248.11908 M 393.26012,226.00833 L 397.96363,240.56642 L 397.40976,250.0554 M 383.6825,227.66334 L 385.42831,244.52995 L 385.42831,250.70013 M 370.31414,228.85527 L 371.4219,250.70013 M 328.02017,221.03012 C 326.00627,226.43814 325.06692,229.59082 323.77971,235.22261 C 322.32856,241.60105 321.77467,245.28323 321.28947,251.80789 C 323.78414,252.63425 325.20649,253.05521 327.74102,253.74423 C 332.912,255.13335 338.78087,256.29869 341.19135,256.50697 C 345.3432,256.8703 373.24969,259.22096 392.98098,254.85199 C 396.302,254.57061 399.98417,254.29812 404.13603,254.01674 C 405.12858,253.95028 407.39503,253.34546 407.26431,252.36175 C 406.62625,247.5652 406.93421,245.81051 406.34931,241.67639 C 405.62041,236.5054 405.36121,233.48788 403.58214,228.58054 C 402.59846,225.87541 401.92273,224.37995 400.53805,221.85649"
         id="path283"
         style="fill:none;stroke:#000000;stroke-width:3.32325602;stroke-linecap:round;stroke-linejoin:round;stroke-miterlimit:3.86369991" />
      <path
         d="M 406.68607,81.229606 L 439.46001,81.229606 L 450.80117,87.222532 M 407.49694,82.361724 L 413.26168,87.251347 L 413.1642,135.1749 L 407.51023,129.18639 L 407.49694,82.361724 L 407.49694,82.361724 z M 413.00912,87.388703 L 450.47771,87.388703 L 450.47771,136.45768 L 413.55191,136.45768 M 424.06226,136.45768 L 424.06226,87.388703 L 416.79099,80.828587 M 432.15108,80.828587 L 440.29969,86.602197 L 440.24208,135.37431 M 407.17348,91.593727 L 413.28385,98.164919 L 449.68013,98.164919 M 407.17348,116.86376 L 412.74103,123.785 L 449.94821,123.785"
         id="path285"
         style="fill:none;stroke:#000000;stroke-width:3.32325602;stroke-miterlimit:3.86369991" />
      <path
         d="M 467.9647,-47.945348 C 467.9647,-52.086123 471.32339,-55.442613 475.46638,-55.442613 C 479.61159,-55.442613 482.9703,-52.083909 482.9703,-47.945348 C 482.9703,-43.795708 479.61159,-40.441436 475.46638,-40.441436 C 471.32339,-40.441436 467.9647,-43.797924 467.9647,-47.945348 L 467.9647,-47.945348 z M 279.71997,-63.214599 C 279.71997,-67.355377 283.08311,-70.71408 287.22388,-70.71408 C 291.3691,-70.71408 294.72561,-67.355377 294.72561,-63.214599 C 294.72561,-59.069391 291.36689,-55.712903 287.22388,-55.712903 C 283.08311,-55.712903 279.71997,-59.071608 279.71997,-63.214599 L 279.71997,-63.214599 z"
         id="path287"
         style="fill:none;stroke:#000000;stroke-width:3.32325602;stroke-linecap:round;stroke-miterlimit:3.86369991" />
      <path
         d="M 320.92613,94.597956 L 357.06986,192.21083 M 325.736,91.307925 L 365.87206,196.263 M 326.49813,90.548 C 326.01292,87.769776 326.50256,85.766957 328.20627,83.520434 C 330.3819,80.653562 333.19115,79.508148 336.75147,80.037654 C 334.48944,77.691444 331.87071,76.951464 328.71585,77.757902 C 326.53135,78.316207 325.25746,79.202414 323.96802,81.050153 C 323.34768,79.581267 322.88905,78.783684 321.94086,77.505341 C 320.3767,75.400616 319.19582,74.341605 316.93599,73.010089 C 315.877,75.079352 315.51366,76.450759 315.4184,78.772607 C 315.32755,81.052359 315.56684,82.419326 316.43309,84.535141 C 313.99605,83.513786 312.09737,83.513786 309.66252,84.535141 C 306.98396,85.65174 305.51286,87.269071 304.66213,90.038452 C 307.73947,88.509745 310.01477,88.192922 313.39787,88.839864 C 315.04397,89.154453 316.11848,89.260801 317.44779,90.290999 C 318.84134,91.378824 319.4905,92.375792 319.91585,94.090603 C 320.6359,92.7347 321.34708,92.027961 322.70297,91.307925 C 324.03226,90.598966 324.99157,90.408436 326.49813,90.548 L 326.49813,90.548 z M 322.95332,101.12039 C 323.07738,99.919592 323.64455,99.115375 324.72352,98.583635 C 325.86005,98.02977 326.91906,98.116173 327.9537,98.840636 M 325.48564,106.6237 C 325.17548,105.44063 325.52772,104.39934 326.50036,103.65048 C 327.74102,102.69117 329.52672,102.91717 330.48603,104.15785 M 390.96042,177.26282 C 395.61741,183.21812 397.80632,187.06422 400.54027,194.1206 C 404.29554,203.80678 405.33905,210.00133 404.96683,220.38316 L 392.15237,220.38316 C 388.64965,221.84541 386.56929,222.48347 382.8517,223.23675 C 377.43257,224.33564 374.22671,224.12737 368.70125,224.07199 C 361.42111,223.98115 356.85939,223.51812 350.13532,222.12679 C 346.91176,221.46435 345.66887,221.16747 342.85517,220.38316 C 338.33334,221.69698 335.30254,221.69698 330.78291,220.38316 C 328.71363,219.77834 327.56821,219.28207 325.72048,218.17431 C 326.05059,212.87926 326.49813,209.87726 327.74325,204.724 C 328.67375,200.84464 329.35391,198.6779 330.78512,194.94697 M 342.30132,204.44485 L 341.47049,210.61502 L 341.47049,215.95883 M 369.95079,177.26282 L 371.69661,183.71436 L 372.25051,195.50085 M 380.0845,177.89869 C 383.56729,185.43361 385.13365,189.92664 387.08772,197.99109 C 388.7294,204.77495 389.34531,208.72077 389.85488,215.68408 M 328.84657,133.94306 L 332.16761,134.77833 L 337.51139,140.58516 L 332.16761,128.88065 L 326.63325,132.47643 L 322.12028,140.95071 L 321.01254,144.54869 L 332.9984,148.50117 L 341.74522,155.4246 M 321.56862,146.20146 C 321.04798,148.25524 320.60931,149.39399 319.63228,151.27274 C 317.16421,156.00507 312.78859,156.45924 310.05244,161.04092 C 308.70099,163.30738 308.04297,164.68763 307.28306,167.2133 C 306.48993,169.85863 305.92717,171.46485 306.17752,174.21873 C 306.42122,176.86405 306.24843,179.09948 308.3908,180.67027 C 309.77328,181.67833 310.92978,181.97742 312.6313,181.77803 C 314.8202,180.44651 315.92794,179.20582 318.44255,178.72726 C 327.74325,176.98146 331.06651,176.15287 337.79055,174.21873 C 340.06587,173.45659 341.94461,173.66485 342.58049,170.34824 C 343.59295,165.0687 341.19579,163.0681 340.28078,158.82541 L 341.74964,156.33518 M 340.83243,174.49125 C 343.28942,176.12847 344.5722,177.28719 346.44873,179.56253 C 348.54239,182.09484 349.51721,183.77197 350.68479,186.84043 C 348.79495,188.86765 347.59858,189.92664 345.34542,191.53953 C 343.79899,192.65616 342.87734,193.22773 341.19357,194.1206 C 337.52911,194.84727 335.31584,194.91376 331.61815,194.39312 C 326.50256,193.68192 323.49389,192.57418 319.26894,189.60319 C 316.12957,187.4032 314.52111,185.77258 312.35214,182.60663 M 338.89388,195.50307 C 338.80746,197.07608 339.31927,198.21703 340.5555,199.18302 C 341.94461,200.28411 343.45117,200.46579 345.06846,199.73911 C 349.02759,198.27468 356.30995,191.9051 356.30995,191.9051 L 352.06947,187.11517 M 345.62236,200.84685 C 347.67392,204.51131 349.22255,206.43657 352.34863,209.24364 C 355.16896,211.76709 357.02334,212.99004 360.45959,214.57856 L 362.94981,216.51271 L 366.6364,216.78519 M 361.00903,209.23477 C 362.74599,210.52419 363.64769,211.40152 364.97256,213.10527 C 366.29523,214.81118 365.892,216.78519 367.73973,217.89516 C 369.71153,219.08488 371.66338,219.08488 373.63742,217.89516 M 366.90668,207.85229 L 369.67829,212.55136 L 371.4241,217.62268 M 395.47342,147.03892 C 397.37652,149.70861 397.96805,151.8776 397.6867,155.14324 C 397.48731,157.46065 396.61217,158.61713 395.75033,160.75953 C 394.71571,163.34946 394.03776,164.77403 392.70624,167.2133 L 378.4251,165.55831 L 368.70125,165.27695 L 355.39274,166.65722 M 357.96935,173.66485 L 373.35825,172.82961 L 391.79345,174.49125 L 392.70846,169.70131 M 418.14243,138.3763 C 416.84416,139.28467 416.23488,140.2196 415.92915,141.77489 C 415.69874,142.9491 415.76742,143.71124 416.2061,144.819 C 418.00066,145.57227 419.03971,145.94446 420.9096,146.48062 C 423.58591,147.25163 425.14786,147.55513 427.9106,147.86308 C 428.75914,145.95333 429.60766,144.91869 431.32025,143.71124 C 434.36878,141.56663 437.25559,143.71789 440.81148,142.60126 C 442.51962,142.07397 443.30613,141.24538 445.05195,140.85766 C 447.18992,140.39241 449.70008,142.82501 450.66826,140.85766 C 451.14902,139.89611 451.14902,139.0609 450.66826,138.09494 M 413.63169,147.31143 C 415.8937,146.43409 417.39138,146.22805 419.80627,146.48285 C 423.02098,146.81295 424.36357,148.67618 427.35894,149.89251 C 428.46669,150.33781 430.29669,149.80166 430.21249,150.99139 C 429.94,155.14324 427.19277,155.38252 424.31484,155.4246 C 421.77144,155.46007 421.21312,152.50679 418.69854,152.09914 C 416.84194,151.80226 415.33982,153.8782 413.90864,152.65523 C 413.24617,152.09248 412.94932,151.5807 412.80086,150.71887 M 399.98639,132.19948 L 405.52072,136.43994 L 408.65122,150.43529 M 411.69532,151.27274 L 406.07459,153.76297 L 398.24056,163.3406 M 424.8687,156.33518 C 420.63267,163.3406 419.80627,165.55831 417.31163,174.49125 C 415.98453,179.26343 413.90864,185.73268 408.37427,190.99231 C 406.76582,192.51658 405.52072,193.73953 403.30742,193.5645 C 402.28609,193.48254 401.68126,193.28315 400.81277,192.73812 M 437.7718,140.95071 L 440.53454,140.58516"
         id="path289"
         style="fill:none;stroke:#000000;stroke-width:3.32325602;stroke-linecap:round;stroke-linejoin:round;stroke-miterlimit:3.86369991" />
      <path
         d="M 236.9541,251.63728 C 205.6003,221.08771 188.94416,177.62838 188.94416,129.26615 C 188.94416,33.70927 268.34557,-48.528024 363.91355,-50.872028 M 130.47699,129.26394 C 130.47699,-2.3724398 237.18231,-109.07553 368.81425,-109.07553 C 500.44619,-109.07553 607.15373,-2.3702244 607.15373,129.26394 C 607.15373,260.89144 500.44399,367.59898 368.81425,367.59898 C 237.18231,367.59898 130.47699,260.89144 130.47699,129.26394 L 130.47699,129.26394 z M 375.57597,-50.54635 C 470.61664,-45.727628 548.68658,33.024672 548.68658,129.26394 C 548.68658,175.88036 529.49144,219.21783 500.40409,251.17204 M 476.27062,273.47328 C 453.05214,291.63822 408.68889,308.05731 373.91434,310.31713 M 359.01951,309.65468 C 321.71707,307.71169 291.54411,295.16307 263.65314,273.89424"
         id="path327"
         style="fill:none;stroke:#000000;stroke-width:3.32325602;stroke-miterlimit:3.86369991" />
      <path
         d="M 253.93595,268.14722 C 253.93595,264.36757 257.00443,261.29689 260.78851,261.29689 C 264.57258,261.29689 267.64106,264.36757 267.64106,268.14722 C 267.64106,271.93573 264.57258,275.00642 260.78851,275.00642 C 257.00443,275.00421 253.93595,271.93573 253.93595,268.14722 L 253.93595,268.14722 z M 472.32923,268.14722 C 472.32923,264.36757 475.40214,261.29689 479.18622,261.29689 C 482.9703,261.29689 486.03878,264.36757 486.03878,268.14722 C 486.03878,271.93573 482.9703,275.00642 479.18622,275.00642 C 475.40214,275.00421 472.32923,271.93573 472.32923,268.14722 L 472.32923,268.14722 z"
         id="path329"
         style="fill:none;stroke:#000000;stroke-width:3.32325602;stroke-linecap:round;stroke-linejoin:round;stroke-miterlimit:3.86369991" />
      <path
         d="M 353.23706,-84.957555 C 355.01167,-90.846363 362.56432,-93.846155 367.89924,-90.779897 C 371.14939,-88.910012 372.76227,-86.337813 372.93507,-82.591395 C 373.13005,-78.355353 370.71073,-75.887281 367.40518,-73.22646 C 365.20963,-71.451842 363.62332,-70.703002 360.85836,-70.129187 M 331.64695,-70.813777 C 319.01196,-63.112688 314.53661,-68.8021 314.34608,-75.486275 C 314.17107,-81.649806 320.06875,-84.642952 326.7507,-85.287664 C 339.30371,-86.503974 343.3559,-70.616596 359.80157,-70.14248 L 363.69644,-70.208945 L 367.25011,-70.270979 C 383.66699,-71.325562 387.16526,-87.339219 399.75155,-86.563795 C 406.44679,-86.153926 412.44416,-83.362391 412.49069,-77.194429 C 412.53721,-70.514684 408.25908,-64.670184 395.36483,-71.92596"
         id="path331"
         style="fill:none;stroke:#000000;stroke-width:3.32325602;stroke-linecap:round;stroke-miterlimit:3.86369991" />
      <path
         d="M 222.82142,71.304147 C 222.82142,71.304147 216.24136,80.985902 212.86493,87.636836 C 209.99143,93.312952 206.47541,102.64244 206.47541,102.64244 C 209.48187,106.09197 211.1169,107.1643 212.86493,110.811 C 215.08044,115.4259 214.58637,116.50708 214.04802,119.64866 M 225.65505,114.53748 C 216.52273,118.74694 202.02225,125.19628 201.68328,129.98619 C 201.17816,137.25303 214.03251,146.75754 223.69431,153.16037 C 228.39784,146.83953 230.13036,142.02746 230.53137,134.16907 C 230.9368,126.28631 229.69612,121.30586 225.65505,114.53748 L 225.65505,114.53748 z M 228.75673,122.70604 L 218.81356,126.87783 M 230.08826,134.158 L 218.37047,134.158 M 228.31363,144.54869 L 217.48647,140.37026 M 213.29916,146.14386 C 212.72979,148.78032 212.2335,150.26246 211.09031,152.71059 C 209.26694,156.63428 207.78035,158.73456 204.7008,161.76981 C 208.18801,166.54201 210.39908,169.08985 214.63955,173.21733 C 217.96504,176.46081 219.97005,178.17119 223.69211,180.94279"
         id="path333"
         style="fill:none;stroke:#000000;stroke-width:3.32325602;stroke-miterlimit:3.86369991" />
      <path
         d="M 515.32551,71.304147 C 515.32551,71.304147 521.90557,80.985902 525.28199,87.636836 C 528.15993,93.312952 531.67591,102.64244 531.67591,102.64244 C 528.66506,106.09197 527.03002,107.1643 525.28199,110.811 C 523.06648,115.4259 523.17283,116.87928 523.7112,120.02085 M 512.49633,114.53748 C 522.82942,115.70281 535.77019,130.98982 538.02779,135.3344 C 540.37401,139.84075 522.82942,149.33641 514.4526,153.16037 C 509.74909,146.83953 508.01656,142.02746 507.61557,134.16907 C 507.21455,126.28631 508.45301,121.30586 512.49633,114.53748 L 512.49633,114.53748 z M 509.39017,122.70604 L 519.32893,126.87783 M 508.05866,134.158 L 519.77646,134.158 M 509.83327,144.54869 L 520.66044,140.37026 M 524.83446,147.97387 C 525.15349,151.43227 525.66305,153.40628 527.05439,156.58554 C 528.78691,160.54686 530.29788,162.68038 533.44391,165.64251 C 529.95671,170.4147 527.74563,172.97138 523.50073,177.09887 C 520.17969,180.33352 518.17466,182.0461 514.4526,184.81548"
         id="path335"
         style="fill:none;stroke:#000000;stroke-width:3.32325602;stroke-miterlimit:3.86369991" />
      <path
         d="M 289.90686,243.97829 L 322.17125,243.69693 M 407.54347,243.97829 L 445.32445,243.69693 M 343.96072,168.87492 L 346.7301,167.76718 M 374.74074,217.89516 C 374.74074,216.48833 374.68311,215.69517 374.46821,214.29717 C 373.86781,210.45994 373.01264,208.2422 370.87024,204.99872 L 367.18364,198.27468 L 361.5629,194.94919 L 357.96935,193.56672"
         id="path337"
         style="fill:none;stroke:#000000;stroke-width:3.32325602;stroke-linecap:round;stroke-linejoin:round;stroke-miterlimit:3.86369991" />
    </g>
  </g>
</svg>
